<svg width="152" height="79" viewBox="0 0 152 79" fill="none" xmlns="http://www.w3.org/2000/svg">
<circle cx="75.5" cy="32.5" r="6.5" fill="#090A0A"/>
<path d="M77.541 2.36133C82.9264 7.42994 87.1186 13.1448 89.6865 19.4844C96.2521 13.3663 101.406 9.69053 109.896 7.33203L111.902 6.77539L112.613 8.73145C116.345 18.9937 116.715 26.8083 115.296 37.4473C125.949 33.1504 134.607 29.8524 148.23 31.2617L151.14 31.5625L150.103 34.2979C144.333 49.5094 128.553 63.6121 113.012 71.4463C105.215 75.3767 97.2523 77.8479 90.3945 78.0068C84.7009 78.1387 79.4991 76.6549 75.999 72.8193C72.499 76.6546 67.2978 78.1387 61.6045 78.0068C54.7467 77.8479 46.7842 75.3767 38.9873 71.4463C23.689 63.7344 8.15894 49.9485 2.17383 35.0098L1.89648 34.2979L0.858398 31.5625L3.76855 31.2617C17.3911 29.8525 26.0493 33.1497 36.7021 37.4463C35.2833 26.8079 35.6542 18.9934 39.3857 8.73145L40.0967 6.77539L42.1025 7.33203L42.9854 7.58594C50.9567 9.9521 55.9769 13.5815 62.3115 19.4844C64.8791 13.1448 69.0714 7.43012 74.457 2.36133L75.999 0.910156L77.541 2.36133ZM37.4355 42.5947C26.49 38.1916 18.9084 34.9072 7.29785 35.502C13.334 48.2815 27.069 60.3997 41.0127 67.4287C48.4656 71.1857 55.7534 73.3707 61.708 73.5088C64.4332 73.5719 66.7942 73.2099 68.7637 72.4258C62.4593 72.3894 56.2768 69.9494 51.124 65.9678C44.1244 60.5589 38.8282 52.18 37.4355 42.5947ZM144.7 35.502C133.09 34.9074 125.508 38.1916 114.562 42.5947C113.17 52.1799 107.875 60.5589 100.875 65.9678C95.722 69.9496 89.539 72.3896 83.2344 72.4258C85.2039 73.2101 87.5647 73.5719 90.29 73.5088C96.2447 73.3708 103.533 71.1858 110.986 67.4287C124.93 60.3997 138.664 48.2814 144.7 35.502ZM42.4912 45C44.2728 52.089 48.5008 58.2537 53.876 62.4072C57.5362 65.2355 61.6574 67.0829 65.8428 67.6982C63.2579 65.6331 61.1564 62.9003 58.9922 60.1377C55.1072 55.1786 50.6458 49.5235 42.4912 45ZM109.507 44.999C101.352 49.5225 96.8917 55.1786 93.0068 60.1377C90.8424 62.9006 88.7397 65.633 86.1543 67.6982C90.3403 67.0831 94.4623 65.236 98.123 62.4072C103.498 58.2535 107.725 52.0883 109.507 44.999ZM42.918 12.2793C39.9018 21.4614 39.8834 28.6523 41.5361 39.458C52.5694 44.656 58.1372 51.7484 62.5352 57.3623C65.5379 61.1953 67.8009 64.0164 70.668 65.5186C60.2645 50.3186 57.499 36.4364 60.7402 24.1885C54.2294 17.9754 49.8063 14.5405 42.918 12.2793ZM109.08 12.2793C102.192 14.5406 97.7687 17.9754 91.2578 24.1885C94.4991 36.4366 91.7338 50.3184 81.3301 65.5186C84.1975 64.0165 86.4609 61.1956 89.4639 57.3623C93.8617 51.7485 99.4291 44.656 110.462 39.458C112.115 28.6521 112.096 21.4615 109.08 12.2793ZM75.998 7.14551C71.1015 12.1138 67.553 17.5852 65.627 23.5186L65.4277 24.1533C61.9514 35.6103 64.3511 49.3291 75.999 65.2627C87.4562 49.5902 89.9663 36.0609 86.7373 24.7188L86.5713 24.1533C84.6965 17.9748 81.0694 12.2908 75.998 7.14551Z" fill="#CB9730"/>
</svg>
