<svg width="22" height="23" viewBox="0 0 22 23" fill="none" xmlns="http://www.w3.org/2000/svg">
<path d="M7.77021 21.0192L7.22458 20.0797H7.22457L7.77021 21.0192ZM6.96209 20.4079L5.88388 20.2746V20.2746L6.96209 20.4079ZM6.32237 16.9885L5.37354 17.5179L5.38011 17.5293L6.32237 16.9885ZM5.35661 15.2574L6.30545 14.7281L6.29888 14.7166L5.35661 15.2574ZM20.5535 13.5947L21.0991 14.5341L20.5535 13.5947ZM20.4437 12.5962L20.8888 11.6051L20.8888 11.6051L20.4437 12.5962ZM17.8493 10.2937L16.9001 10.8224L16.907 10.8345L17.8493 10.2937ZM16.9324 8.64776L17.8816 8.11902L17.8747 8.10697L16.9324 8.64776ZM7.75898 6.15152L8.30461 7.09098L7.75898 6.15152ZM13.8191 20.9385L14.3648 21.878L13.8191 20.9385ZM0.212706 11.2508C0.297323 11.8448 0.847464 12.2577 1.44148 12.1731C2.0355 12.0885 2.44845 11.5383 2.36383 10.9443L0.212706 11.2508ZM3.03862 7.52107C3.35245 7.00968 3.1923 6.3407 2.68091 6.02686C2.16951 5.71303 1.50053 5.87318 1.1867 6.38458L3.03862 7.52107ZM10.9232 0.74736C10.3233 0.758741 9.84623 1.25429 9.85761 1.85419C9.86899 2.4541 10.3645 2.93119 10.9644 2.91981L10.9232 0.74736ZM14.2498 4.00811C14.7165 4.38517 15.4005 4.31248 15.7776 3.84574C16.1547 3.37901 16.082 2.69498 15.6152 2.31792L14.2498 4.00811ZM8.0403 20.5412C8.17905 19.4191 8.09583 17.896 7.26464 16.4477L5.38011 17.5293C5.91065 18.4537 5.98375 19.4669 5.88388 20.2746L8.0403 20.5412ZM7.27114 16.4592L6.30538 14.7281L4.40785 15.7867L5.37361 17.5178L7.27114 16.4592ZM20.8888 11.6051C20.165 11.2801 19.3329 10.6962 18.7916 9.7529L16.907 10.8345C17.7368 12.2802 18.9825 13.1309 19.9986 13.5872L20.8888 11.6051ZM18.7984 9.76499L17.8815 8.11906L15.9833 9.17646L16.9002 10.8224L18.7984 9.76499ZM17.8747 8.10697C15.7189 4.35074 10.9473 3.04336 7.21334 5.21205L8.30461 7.09098C10.9833 5.53518 14.4259 6.46302 15.9902 9.18854L17.8747 8.10697ZM21.0991 14.5341C21.7706 14.1441 21.91 13.4298 21.851 12.949C21.7921 12.4693 21.5066 11.8826 20.8888 11.6051L19.9986 13.5872C19.7565 13.4785 19.7035 13.2879 19.6944 13.2137C19.6851 13.1383 19.6916 12.8389 20.0079 12.6552L21.0991 14.5341ZM6.29888 14.7166C4.75953 12.0345 5.66856 8.62199 8.30461 7.09098L7.21334 5.21205C3.5298 7.35145 2.28768 12.0927 4.41435 15.7982L6.29888 14.7166ZM7.22457 20.0797C7.55072 19.8903 7.82019 20.0446 7.87829 20.0897C7.93616 20.1346 8.07293 20.2773 8.0403 20.5412L5.88388 20.2746C5.79983 20.9543 6.16084 21.5071 6.54571 21.8059C6.93082 22.1049 7.63006 22.357 8.31585 21.9586L7.22457 20.0797ZM20.0079 12.6552L7.22458 20.0797L8.31585 21.9586L21.0991 14.5341L20.0079 12.6552ZM14.1291 17.3195C14.6169 18.1694 14.319 19.3918 13.2735 19.9991L14.3648 21.878C16.3344 20.734 17.1578 18.2316 16.0136 16.2379L14.1291 17.3195ZM13.2735 19.9991C12.2309 20.6046 11.0393 20.254 10.5542 19.4087L8.66968 20.4903C9.81655 22.4886 12.3922 23.0236 14.3648 21.878L13.2735 19.9991ZM7.58585 3.80469C7.87005 4.29987 7.69881 4.93009 7.21334 5.21205L8.30461 7.09098C9.82924 6.20548 10.3467 4.25004 9.47038 2.72312L7.58585 3.80469ZM7.21334 5.21205C6.73169 5.4918 6.11281 5.32842 5.83077 4.837L3.94625 5.91857C4.82474 7.44925 6.77617 7.9787 8.30461 7.09098L7.21334 5.21205ZM5.83077 4.837C5.54658 4.34182 5.71781 3.71159 6.20329 3.42963L5.11201 1.55071C3.58739 2.43621 3.06991 4.39164 3.94625 5.91857L5.83077 4.837ZM6.20329 3.42963C6.68494 3.14989 7.30381 3.31326 7.58585 3.80469L9.47038 2.72312C8.59189 1.19243 6.64046 0.662984 5.11201 1.55071L6.20329 3.42963ZM2.36383 10.9443C2.19142 9.73401 2.42382 8.52289 3.03862 7.52107L1.1867 6.38458C0.28927 7.84694 -0.0261194 9.57418 0.212706 11.2508L2.36383 10.9443ZM10.9644 2.91981C12.1807 2.89673 13.3434 3.27588 14.2498 4.00811L15.6152 2.31792C14.2836 1.24213 12.6138 0.715288 10.9232 0.74736L10.9644 2.91981Z" fill="#6B6B6B"/>
</svg>
