<svg width="16" height="16" viewBox="0 0 16 16" fill="none" xmlns="http://www.w3.org/2000/svg">
<path fill-rule="evenodd" clip-rule="evenodd" d="M7.99996 9.94514L12.861 14.8062C13.119 15.0642 13.4688 15.2091 13.8336 15.2091C14.1984 15.2091 14.5483 15.0642 14.8062 14.8062C15.0642 14.5483 15.2091 14.1984 15.2091 13.8336C15.2091 13.4689 15.0642 13.119 14.8062 12.8611L9.9433 7.99998L14.8053 3.1389C14.933 3.01117 15.0342 2.85956 15.1033 2.69271C15.1723 2.52585 15.2079 2.34703 15.2078 2.16645C15.2078 1.98586 15.1722 1.80706 15.103 1.64024C15.0339 1.47342 14.9326 1.32185 14.8048 1.19419C14.6771 1.06653 14.5255 0.965271 14.3586 0.896205C14.1918 0.827138 14.013 0.791612 13.8324 0.791654C13.6518 0.791697 13.473 0.827307 13.3062 0.896453C13.1394 0.965598 12.9878 1.06692 12.8601 1.19465L7.99996 6.05573L3.13888 1.19465C3.0121 1.06326 2.86043 0.95844 2.69271 0.8863C2.52498 0.814159 2.34458 0.776144 2.16201 0.774472C1.97944 0.7728 1.79836 0.807504 1.62935 0.876561C1.46033 0.945617 1.30676 1.04764 1.1776 1.17668C1.04844 1.30573 0.946268 1.4592 0.877052 1.62815C0.807836 1.7971 0.772961 1.97814 0.77446 2.16071C0.77596 2.34328 0.813805 2.52373 0.885787 2.69151C0.95777 2.8593 1.06245 3.01108 1.19371 3.13798L6.05663 7.99998L1.19463 12.862C1.06336 12.9889 0.958687 13.1407 0.886704 13.3084C0.814722 13.4762 0.776877 13.6567 0.775377 13.8392C0.773877 14.0218 0.808753 14.2029 0.877969 14.3718C0.947184 14.5408 1.04935 14.6942 1.17852 14.8233C1.30768 14.9523 1.46125 15.0543 1.63026 15.1234C1.79928 15.1925 1.98035 15.2272 2.16292 15.2255C2.34549 15.2238 2.5259 15.1858 2.69362 15.1137C2.86134 15.0415 3.01302 14.9367 3.1398 14.8053L7.99996 9.94514Z" fill="#6B6B6B"/>
</svg>
