<svg width="24" height="25" viewBox="0 0 24 25" fill="none" xmlns="http://www.w3.org/2000/svg">
<path d="M1.33333 24.7949C0.955556 24.7949 0.639111 24.6669 0.384 24.4109C0.128889 24.1549 0.000888889 23.8384 0 23.4615V20.2282C0 19.8726 0.0666668 19.5335 0.2 19.2109C0.333333 18.8882 0.522222 18.6051 0.766667 18.3615L17.6 1.56153C17.8667 1.31708 18.1613 1.12819 18.484 0.994861C18.8067 0.861528 19.1453 0.794861 19.5 0.794861C19.8547 0.794861 20.1991 0.861528 20.5333 0.994861C20.8676 1.12819 21.1564 1.32819 21.4 1.59486L23.2333 3.46153C23.5 3.70597 23.6942 3.99486 23.816 4.32819C23.9378 4.66153 23.9991 4.99486 24 5.32819C24 5.68375 23.9387 6.02286 23.816 6.34553C23.6933 6.66819 23.4991 6.96242 23.2333 7.22819L6.43333 24.0282C6.18889 24.2726 5.90533 24.4615 5.58267 24.5949C5.26 24.7282 4.92133 24.7949 4.56667 24.7949H1.33333ZM19.4667 7.19486L21.3333 5.32819L19.4667 3.46153L17.6 5.32819L19.4667 7.19486Z" fill="url(#paint0_linear_7091_2026)"/>
<defs>
<linearGradient id="paint0_linear_7091_2026" x1="12" y1="0.794861" x2="12" y2="24.7949" gradientUnits="userSpaceOnUse">
<stop offset="0.485" stop-color="#F5AB32"/>
<stop offset="1" stop-color="#D97325"/>
</linearGradient>
</defs>
</svg>
