<svg width="24" height="24" viewBox="0 0 24 24" fill="none" xmlns="http://www.w3.org/2000/svg">
<path fill-rule="evenodd" clip-rule="evenodd" d="M3 8.61023C3 8.05794 3.44772 7.61023 4 7.61023H13C13.5523 7.61023 14 8.05794 14 8.61023C14 9.16251 13.5523 9.61023 13 9.61023H4C3.44772 9.61023 3 9.16251 3 8.61023ZM16.2929 8.90312C16.6834 8.5126 17.3166 8.5126 17.7071 8.90312L20.7071 11.9031C21.0976 12.2936 21.0976 12.9268 20.7071 13.3173L17.7071 16.3173C17.3166 16.7079 16.6834 16.7079 16.2929 16.3173C15.9024 15.9268 15.9024 15.2936 16.2929 14.9031L17.5858 13.6102H4C3.44772 13.6102 3 13.1625 3 12.6102C3 12.0579 3.44772 11.6102 4 11.6102H17.5858L16.2929 10.3173C15.9024 9.92681 15.9024 9.29365 16.2929 8.90312ZM3 16.6102C3 16.0579 3.44772 15.6102 4 15.6102H13C13.5523 15.6102 14 16.0579 14 16.6102C14 17.1625 13.5523 17.6102 13 17.6102H4C3.44772 17.6102 3 17.1625 3 16.6102Z" fill="url(#paint0_linear_6492_4527)"/>
<defs>
<linearGradient id="paint0_linear_6492_4527" x1="12" y1="7.61023" x2="12" y2="17.6102" gradientUnits="userSpaceOnUse">
<stop offset="0.485" stop-color="#F5AB32"/>
<stop offset="1" stop-color="#D97325"/>
</linearGradient>
</defs>
</svg>
