<svg width="28" height="28" viewBox="0 0 28 28" fill="none" xmlns="http://www.w3.org/2000/svg">
<path fill-rule="evenodd" clip-rule="evenodd" d="M27.3334 13.7949C27.3334 6.43085 21.364 0.461517 14 0.461517C6.63602 0.461517 0.666687 6.43085 0.666687 13.7949C0.666687 21.1589 6.63602 27.1282 14 27.1282C21.364 27.1282 27.3334 21.1589 27.3334 13.7949ZM14 7.12818C14.3536 7.12818 14.6928 7.26866 14.9428 7.51871C15.1929 7.76876 15.3334 8.1079 15.3334 8.46152V15.1282C15.3334 15.4818 15.1929 15.8209 14.9428 16.071C14.6928 16.321 14.3536 16.4615 14 16.4615C13.6464 16.4615 13.3073 16.321 13.0572 16.071C12.8072 15.8209 12.6667 15.4818 12.6667 15.1282V8.46152C12.6667 8.1079 12.8072 7.76876 13.0572 7.51871C13.3073 7.26866 13.6464 7.12818 14 7.12818ZM12.6667 19.1282C12.6667 18.7746 12.8072 18.4354 13.0572 18.1854C13.3073 17.9353 13.6464 17.7949 14 17.7949H14.0107C14.3643 17.7949 14.7034 17.9353 14.9535 18.1854C15.2035 18.4354 15.344 18.7746 15.344 19.1282C15.344 19.4818 15.2035 19.8209 14.9535 20.071C14.7034 20.321 14.3643 20.4615 14.0107 20.4615H14C13.6464 20.4615 13.3073 20.321 13.0572 20.071C12.8072 19.8209 12.6667 19.4818 12.6667 19.1282Z" fill="#E63946"/>
</svg>
