<svg width="13" height="10" viewBox="0 0 13 10" fill="none" xmlns="http://www.w3.org/2000/svg">
<path d="M12.7073 4.29342C12.8946 4.48092 12.9998 4.73509 12.9998 5.00009C12.9998 5.26509 12.8946 5.51926 12.7073 5.70676L8.93666 9.47875C8.84377 9.57164 8.7335 9.64533 8.61214 9.6956C8.49077 9.74587 8.36069 9.77174 8.22933 9.77174C8.09797 9.77174 7.96789 9.74587 7.84652 9.6956C7.72516 9.64533 7.61488 9.57164 7.522 9.47875C7.42911 9.38587 7.35543 9.27559 7.30515 9.15423C7.25488 9.03286 7.22901 8.90279 7.22901 8.77142C7.22901 8.64006 7.25488 8.50998 7.30515 8.38862C7.35543 8.26725 7.42911 8.15698 7.522 8.06409L9.586 6.00009H1.896C1.63078 6.00009 1.37643 5.89473 1.18889 5.7072C1.00135 5.51966 0.895996 5.26531 0.895996 5.00009C0.895996 4.73487 1.00135 4.48052 1.18889 4.29298C1.37643 4.10545 1.63078 4.00009 1.896 4.00009H9.586L7.522 1.93609C7.33449 1.74849 7.22918 1.49409 7.22924 1.22885C7.22931 0.963614 7.33473 0.709263 7.52233 0.521755C7.70993 0.334247 7.96433 0.228941 8.22957 0.229004C8.4948 0.229066 8.74915 0.334492 8.93666 0.522089L12.7073 4.29342Z" fill="black"/>
</svg>
