<svg width="11" height="6" viewBox="0 0 11 6" fill="none" xmlns="http://www.w3.org/2000/svg">
<path fill-rule="evenodd" clip-rule="evenodd" d="M6.2066 5.70676C6.0191 5.89402 5.76493 5.99921 5.49993 5.99921C5.23493 5.99921 4.98077 5.89402 4.79327 5.70676L1.02127 1.93609C0.833759 1.74849 0.728453 1.49409 0.728516 1.22885C0.728578 0.963614 0.834004 0.709264 1.0216 0.521756C1.2092 0.334247 1.4636 0.228941 1.72884 0.229004C1.99408 0.229066 2.24843 0.334492 2.43593 0.522089L5.49993 3.58609L8.56393 0.522089C8.75245 0.33984 9.00501 0.238925 9.2672 0.241079C9.5294 0.243233 9.78027 0.348283 9.96576 0.533605C10.1513 0.718926 10.2565 0.96969 10.2589 1.23189C10.2613 1.49408 10.1607 1.74673 9.9786 1.93542L6.20727 5.70742L6.2066 5.70676Z" fill="black"/>
</svg>
