<svg viewBox="0 0 18 21" fill="none" xmlns="http://www.w3.org/2000/svg">
<path d="M6 3.87415C5.58579 3.87415 5.25 4.20993 5.25 4.62415C5.25 5.03836 5.58579 5.37415 6 5.37415H12C12.4142 5.37415 12.75 5.03836 12.75 4.62415C12.75 4.20993 12.4142 3.87415 12 3.87415H6Z" fill="#6B6B6B"/>
<path fill-rule="evenodd" clip-rule="evenodd" d="M18 14.7141C18 17.8111 18 19.3601 17.266 20.0361C16.916 20.3591 16.473 20.5621 16.003 20.6151C15.0161 20.7291 13.8628 19.7089 11.5581 17.6702L11.5509 17.6639C10.5366 16.7671 10.0286 16.3179 9.44 16.2001C9.15 16.1401 8.85 16.1401 8.56 16.2001C7.97302 16.3177 7.46549 16.7661 6.45245 17.6609L6.44158 17.6705C4.13686 19.7093 2.98394 20.7291 1.997 20.6161C1.526 20.5621 1.084 20.3591 0.734 20.0361C0 19.3601 0 17.8111 0 14.7151V9.72215C0 5.43414 0 3.28815 1.318 1.95615C2.636 0.624146 4.758 0.624146 9 0.624146C13.242 0.624146 15.364 0.624146 16.682 1.95615C18 3.28915 18 5.43215 18 9.72215V14.7141ZM11.2235 15.4307C10.8071 15.1262 10.3303 14.8495 9.73911 14.7303C9.25163 14.6301 8.7481 14.6301 8.26064 14.7303C7.66979 14.8496 7.19323 15.1265 6.77722 15.4307C6.39422 15.7108 5.96942 16.0861 5.5019 16.4992L5.44895 16.5459L5.44815 16.5466C4.26828 17.5904 3.47562 18.2887 2.85811 18.7262C2.38263 19.063 2.18289 19.1153 2.14665 19.1232C2.00631 19.1029 1.87292 19.0416 1.76318 18.9446C1.74746 18.9174 1.64849 18.7343 1.58326 18.1238C1.50208 17.3639 1.5 16.2991 1.5 14.7151V9.72215C1.5 7.53621 1.50312 6.0455 1.65166 4.92836C1.79472 3.85253 2.04775 3.35126 2.38425 3.01119C2.7187 2.67319 3.20809 2.42051 4.26444 2.27699C5.3655 2.1274 6.83617 2.12415 9 2.12415C11.1638 2.12415 12.6345 2.1274 13.7356 2.27699C14.7915 2.42045 15.2813 2.67339 15.6158 3.01119C15.9526 3.35209 16.2054 3.85343 16.3483 4.92804C16.4969 6.04476 16.5 7.53517 16.5 9.72215V14.7141C16.5 16.2986 16.4979 17.3637 16.4167 18.1237C16.3515 18.7342 16.2526 18.9174 16.2368 18.9446C16.1265 19.0421 15.992 19.1031 15.8526 19.1224C15.8173 19.1147 15.618 19.0633 15.1417 18.726C14.5243 18.2887 13.7315 17.5902 12.5516 16.5464L12.501 16.5017C12.0329 16.0877 11.6075 15.7115 11.2235 15.4307Z" fill="#6B6B6B"/>
</svg>
