<svg viewBox="0 0 24 24" xmlns="http://www.w3.org/2000/svg">
<mask id="path-1-outside-1_6492_4546" maskUnits="userSpaceOnUse" x="0.304199" y="0.624146" width="24" height="23" fill="black">
<rect fill="white" x="0.304199" y="0.624146" width="24" height="23"/>
<path d="M2.3042 5.87415C2.3042 5.01219 2.64661 4.18554 3.2561 3.57605C3.8656 2.96656 4.69225 2.62415 5.5542 2.62415H19.0542C19.481 2.62415 19.9036 2.70821 20.2979 2.87154C20.6922 3.03486 21.0505 3.27426 21.3523 3.57605C21.6541 3.87784 21.8935 4.23612 22.0568 4.63042C22.2201 5.02473 22.3042 5.44735 22.3042 5.87415V14.3741C22.3042 14.8009 22.2201 15.2236 22.0568 15.6179C21.8935 16.0122 21.6541 16.3705 21.3523 16.6722C21.0505 16.974 20.6922 17.2134 20.2979 17.3768C19.9036 17.5401 19.481 17.6241 19.0542 17.6241H13.3042L8.3042 21.3741C7.4802 21.9921 6.3042 21.4041 6.3042 20.3741V17.6241H5.5542C4.69225 17.6241 3.8656 17.2817 3.2561 16.6722C2.64661 16.0627 2.3042 15.2361 2.3042 14.3741V5.87415ZM11.5542 11.6241H18.5542C18.7531 11.6241 18.9439 11.5451 19.0845 11.4045C19.2252 11.2638 19.3042 11.0731 19.3042 10.8741C19.3042 10.6752 19.2252 10.4845 19.0845 10.3438C18.9439 10.2032 18.7531 10.1241 18.5542 10.1241H11.5542C11.3553 10.1241 11.1645 10.2032 11.0239 10.3438C10.8832 10.4845 10.8042 10.6752 10.8042 10.8741C10.8042 11.0731 10.8832 11.2638 11.0239 11.4045C11.1645 11.5451 11.3553 11.6241 11.5542 11.6241ZM8.5542 10.1241H6.0542C5.85529 10.1241 5.66452 10.2032 5.52387 10.3438C5.38322 10.4845 5.3042 10.6752 5.3042 10.8741C5.3042 11.0731 5.38322 11.2638 5.52387 11.4045C5.66452 11.5451 5.85529 11.6241 6.0542 11.6241H8.5542C8.75311 11.6241 8.94388 11.5451 9.08453 11.4045C9.22518 11.2638 9.3042 11.0731 9.3042 10.8741C9.3042 10.6752 9.22518 10.4845 9.08453 10.3438C8.94388 10.2032 8.75311 10.1241 8.5542 10.1241ZM6.0542 13.1241C5.85529 13.1241 5.66452 13.2032 5.52387 13.3438C5.38322 13.4845 5.3042 13.6752 5.3042 13.8741C5.3042 14.0731 5.38322 14.2638 5.52387 14.4045C5.66452 14.5451 5.85529 14.6241 6.0542 14.6241H13.0542C13.2531 14.6241 13.4439 14.5451 13.5845 14.4045C13.7252 14.2638 13.8042 14.0731 13.8042 13.8741C13.8042 13.6752 13.7252 13.4845 13.5845 13.3438C13.4439 13.2032 13.2531 13.1241 13.0542 13.1241H6.0542ZM16.0542 14.6241H18.5542C18.7531 14.6241 18.9439 14.5451 19.0845 14.4045C19.2252 14.2638 19.3042 14.0731 19.3042 13.8741C19.3042 13.6752 19.2252 13.4845 19.0845 13.3438C18.9439 13.2032 18.7531 13.1241 18.5542 13.1241H16.0542C15.8553 13.1241 15.6645 13.2032 15.5239 13.3438C15.3832 13.4845 15.3042 13.6752 15.3042 13.8741C15.3042 14.0731 15.3832 14.2638 15.5239 14.4045C15.6645 14.5451 15.8553 14.6241 16.0542 14.6241Z"/>
</mask>
<path d="M5.5542 2.62415V1.12415V2.62415ZM19.0542 2.62415V4.12415V2.62415ZM22.3042 5.87415H20.8042H22.3042ZM13.3042 17.6241V16.1241H12.8042L12.4042 16.4241L13.3042 17.6241ZM8.3042 21.3741L9.2042 22.5741L8.3042 21.3741ZM6.3042 17.6241H7.8042V16.1241H6.3042V17.6241ZM5.5542 17.6241V19.1241V17.6241ZM2.3042 14.3741H0.804199H2.3042ZM5.3042 10.8741H3.8042H5.3042ZM5.3042 13.8741H3.8042H5.3042ZM3.8042 5.87415C3.8042 5.41002 3.98857 4.9649 4.31676 4.63671L2.19544 2.51539C1.30464 3.40619 0.804199 4.61437 0.804199 5.87415H3.8042ZM4.31676 4.63671C4.64495 4.30852 5.09007 4.12415 5.5542 4.12415V1.12415C4.29442 1.12415 3.08624 1.62459 2.19544 2.51539L4.31676 4.63671ZM5.5542 4.12415H19.0542V1.12415H5.5542V4.12415ZM19.0542 4.12415C19.284 4.12415 19.5116 4.16941 19.7239 4.25736L20.8719 1.48572C20.2956 1.24701 19.678 1.12415 19.0542 1.12415V4.12415ZM19.7239 4.25736C19.9362 4.3453 20.1291 4.47421 20.2916 4.63671L22.413 2.51539C21.9719 2.07431 21.4482 1.72443 20.8719 1.48572L19.7239 4.25736ZM20.2916 4.63671C20.4541 4.79921 20.583 4.99213 20.671 5.20445L23.4426 4.0564C23.2039 3.4801 22.854 2.95647 22.413 2.51539L20.2916 4.63671ZM20.671 5.20445C20.7589 5.41677 20.8042 5.64433 20.8042 5.87415H23.8042C23.8042 5.25037 23.6813 4.6327 23.4426 4.0564L20.671 5.20445ZM20.8042 5.87415V14.3741H23.8042V5.87415H20.8042ZM20.8042 14.3741C20.8042 14.604 20.7589 14.8315 20.671 15.0438L23.4426 16.1919C23.6813 15.6156 23.8042 14.9979 23.8042 14.3741H20.8042ZM20.671 15.0438C20.583 15.2562 20.4541 15.4491 20.2916 15.6116L22.413 17.7329C22.854 17.2918 23.2039 16.7682 23.4426 16.1919L20.671 15.0438ZM20.2916 15.6116C20.1291 15.7741 19.9362 15.903 19.7239 15.9909L20.8719 18.7626C21.4482 18.5239 21.9719 18.174 22.413 17.7329L20.2916 15.6116ZM19.7239 15.9909C19.5116 16.0789 19.284 16.1241 19.0542 16.1241V19.1241C19.678 19.1241 20.2956 19.0013 20.8719 18.7626L19.7239 15.9909ZM19.0542 16.1241H13.3042V19.1241H19.0542V16.1241ZM12.4042 16.4241L7.4042 20.1741L9.2042 22.5741L14.2042 18.8241L12.4042 16.4241ZM7.4042 20.1741C7.56905 20.0505 7.8042 20.1681 7.8042 20.3741H4.8042C4.8042 22.6402 7.39135 23.9338 9.2042 22.5741L7.4042 20.1741ZM7.8042 20.3741V17.6241H4.8042V20.3741H7.8042ZM6.3042 16.1241H5.5542V19.1241H6.3042V16.1241ZM5.5542 16.1241C5.09007 16.1241 4.64495 15.9398 4.31676 15.6116L2.19544 17.7329C3.08624 18.6237 4.29442 19.1241 5.5542 19.1241V16.1241ZM4.31676 15.6116C3.98857 15.2834 3.8042 14.8383 3.8042 14.3741H0.804199C0.804199 15.6339 1.30464 16.8421 2.19544 17.7329L4.31676 15.6116ZM3.8042 14.3741V5.87415H0.804199V14.3741H3.8042ZM11.5542 13.1241H18.5542V10.1241H11.5542V13.1241ZM18.5542 13.1241C19.1509 13.1241 19.7232 12.8871 20.1452 12.4651L18.0239 10.3438C18.1645 10.2032 18.3553 10.1241 18.5542 10.1241V13.1241ZM20.1452 12.4651C20.5671 12.0432 20.8042 11.4709 20.8042 10.8741H17.8042C17.8042 10.6752 17.8832 10.4845 18.0239 10.3438L20.1452 12.4651ZM20.8042 10.8741C20.8042 10.2774 20.5671 9.70511 20.1452 9.28316L18.0239 11.4045C17.8832 11.2638 17.8042 11.0731 17.8042 10.8741H20.8042ZM20.1452 9.28316C19.7232 8.8612 19.1509 8.62415 18.5542 8.62415V11.6241C18.3553 11.6241 18.1645 11.5451 18.0239 11.4045L20.1452 9.28316ZM18.5542 8.62415H11.5542V11.6241H18.5542V8.62415ZM11.5542 8.62415C10.9575 8.62415 10.3852 8.8612 9.96321 9.28316L12.0845 11.4045C11.9439 11.5451 11.7531 11.6241 11.5542 11.6241V8.62415ZM9.96321 9.28316C9.54125 9.70511 9.3042 10.2774 9.3042 10.8741H12.3042C12.3042 11.0731 12.2252 11.2638 12.0845 11.4045L9.96321 9.28316ZM9.3042 10.8741C9.3042 11.4709 9.54125 12.0432 9.96321 12.4651L12.0845 10.3438C12.2252 10.4845 12.3042 10.6752 12.3042 10.8741H9.3042ZM9.96321 12.4651C10.3852 12.8871 10.9575 13.1241 11.5542 13.1241V10.1241C11.7531 10.1241 11.9439 10.2032 12.0845 10.3438L9.96321 12.4651ZM8.5542 8.62415H6.0542V11.6241H8.5542V8.62415ZM6.0542 8.62415C5.45746 8.62415 4.88516 8.8612 4.46321 9.28316L6.58453 11.4045C6.44388 11.5451 6.25311 11.6241 6.0542 11.6241V8.62415ZM4.46321 9.28316C4.04125 9.70511 3.8042 10.2774 3.8042 10.8741H6.8042C6.8042 11.0731 6.72518 11.2638 6.58453 11.4045L4.46321 9.28316ZM3.8042 10.8741C3.8042 11.4709 4.04125 12.0432 4.46321 12.4651L6.58453 10.3438C6.72518 10.4845 6.8042 10.6752 6.8042 10.8741H3.8042ZM4.46321 12.4651C4.88516 12.8871 5.45746 13.1241 6.0542 13.1241V10.1241C6.25311 10.1241 6.44388 10.2032 6.58453 10.3438L4.46321 12.4651ZM6.0542 13.1241H8.5542V10.1241H6.0542V13.1241ZM8.5542 13.1241C9.15094 13.1241 9.72323 12.8871 10.1452 12.4651L8.02387 10.3438C8.16452 10.2032 8.35528 10.1241 8.5542 10.1241V13.1241ZM10.1452 12.4651C10.5671 12.0432 10.8042 11.4709 10.8042 10.8741H7.8042C7.8042 10.6752 7.88322 10.4845 8.02387 10.3438L10.1452 12.4651ZM10.8042 10.8741C10.8042 10.2774 10.5671 9.70511 10.1452 9.28316L8.02387 11.4045C7.88322 11.2638 7.8042 11.0731 7.8042 10.8741H10.8042ZM10.1452 9.28316C9.72323 8.8612 9.15094 8.62415 8.5542 8.62415V11.6241C8.35528 11.6241 8.16452 11.5451 8.02387 11.4045L10.1452 9.28316ZM6.0542 11.6241C5.45746 11.6241 4.88516 11.8612 4.46321 12.2832L6.58453 14.4045C6.44388 14.5451 6.25311 14.6241 6.0542 14.6241V11.6241ZM4.46321 12.2832C4.04125 12.7051 3.8042 13.2774 3.8042 13.8741H6.8042C6.8042 14.0731 6.72518 14.2638 6.58453 14.4045L4.46321 12.2832ZM3.8042 13.8741C3.8042 14.4709 4.04125 15.0432 4.46321 15.4651L6.58453 13.3438C6.72518 13.4845 6.8042 13.6752 6.8042 13.8741H3.8042ZM4.46321 15.4651C4.88516 15.8871 5.45746 16.1241 6.0542 16.1241V13.1241C6.25311 13.1241 6.44388 13.2032 6.58453 13.3438L4.46321 15.4651ZM6.0542 16.1241H13.0542V13.1241H6.0542V16.1241ZM13.0542 16.1241C13.6509 16.1241 14.2232 15.8871 14.6452 15.4651L12.5239 13.3438C12.6645 13.2032 12.8553 13.1241 13.0542 13.1241V16.1241ZM14.6452 15.4651C15.0671 15.0432 15.3042 14.4709 15.3042 13.8741H12.3042C12.3042 13.6752 12.3832 13.4845 12.5239 13.3438L14.6452 15.4651ZM15.3042 13.8741C15.3042 13.2774 15.0671 12.7051 14.6452 12.2832L12.5239 14.4045C12.3832 14.2638 12.3042 14.0731 12.3042 13.8741H15.3042ZM14.6452 12.2832C14.2232 11.8612 13.6509 11.6241 13.0542 11.6241V14.6241C12.8553 14.6241 12.6645 14.5451 12.5239 14.4045L14.6452 12.2832ZM13.0542 11.6241H6.0542V14.6241H13.0542V11.6241ZM16.0542 16.1241H18.5542V13.1241H16.0542V16.1241ZM18.5542 16.1241C19.1509 16.1241 19.7232 15.8871 20.1452 15.4651L18.0239 13.3438C18.1645 13.2032 18.3553 13.1241 18.5542 13.1241V16.1241ZM20.1452 15.4651C20.5671 15.0432 20.8042 14.4709 20.8042 13.8741H17.8042C17.8042 13.6752 17.8832 13.4845 18.0239 13.3438L20.1452 15.4651ZM20.8042 13.8741C20.8042 13.2774 20.5671 12.7051 20.1452 12.2832L18.0239 14.4045C17.8832 14.2638 17.8042 14.0731 17.8042 13.8741H20.8042ZM20.1452 12.2832C19.7232 11.8612 19.1509 11.6241 18.5542 11.6241V14.6241C18.3553 14.6241 18.1645 14.5451 18.0239 14.4045L20.1452 12.2832ZM18.5542 11.6241H16.0542V14.6241H18.5542V11.6241ZM16.0542 11.6241C15.4575 11.6241 14.8852 11.8612 14.4632 12.2832L16.5845 14.4045C16.4439 14.5451 16.2531 14.6241 16.0542 14.6241V11.6241ZM14.4632 12.2832C14.0413 12.7051 13.8042 13.2774 13.8042 13.8741H16.8042C16.8042 14.0731 16.7252 14.2638 16.5845 14.4045L14.4632 12.2832ZM13.8042 13.8741C13.8042 14.4709 14.0413 15.0432 14.4632 15.4651L16.5845 13.3438C16.7252 13.4845 16.8042 13.6752 16.8042 13.8741H13.8042ZM14.4632 15.4651C14.8852 15.8871 15.4575 16.1241 16.0542 16.1241V13.1241C16.2531 13.1241 16.4439 13.2032 16.5845 13.3438L14.4632 15.4651Z" fill="#6B6B6B" mask="url(#path-1-outside-1_6492_4546)"/>
</svg>
