<svg viewBox="0 -1.9 24 24" fill="none" xmlns="http://www.w3.org/2000/svg">
<mask id="path-1-outside-1_6492_4548" maskUnits="userSpaceOnUse" x="0.304199" y="-0.375854" width="24" height="23" fill="black">
<rect fill="white" x="0.304199" y="-0.375854" width="24" height="23"/>
<path d="M2.3042 4.87415C2.3042 4.01219 2.64661 3.18554 3.2561 2.57605C3.8656 1.96656 4.69225 1.62415 5.5542 1.62415H19.0542C19.481 1.62415 19.9036 1.70821 20.2979 1.87154C20.6922 2.03486 21.0505 2.27426 21.3523 2.57605C21.6541 2.87784 21.8935 3.23612 22.0568 3.63042C22.2201 4.02473 22.3042 4.44735 22.3042 4.87415V13.3741C22.3042 13.8009 22.2201 14.2236 22.0568 14.6179C21.8935 15.0122 21.6541 15.3705 21.3523 15.6722C21.0505 15.974 20.6922 16.2134 20.2979 16.3768C19.9036 16.5401 19.481 16.6241 19.0542 16.6241H13.3042L8.3042 20.3741C7.4802 20.9921 6.3042 20.4041 6.3042 19.3741V16.6241H5.5542C4.69225 16.6241 3.8656 16.2817 3.2561 15.6722C2.64661 15.0627 2.3042 14.2361 2.3042 13.3741V4.87415ZM11.5542 10.6241H18.5542C18.7531 10.6241 18.9439 10.5451 19.0845 10.4045C19.2252 10.2638 19.3042 10.0731 19.3042 9.87415C19.3042 9.67523 19.2252 9.48447 19.0845 9.34382C18.9439 9.20316 18.7531 9.12415 18.5542 9.12415H11.5542C11.3553 9.12415 11.1645 9.20316 11.0239 9.34382C10.8832 9.48447 10.8042 9.67523 10.8042 9.87415C10.8042 10.0731 10.8832 10.2638 11.0239 10.4045C11.1645 10.5451 11.3553 10.6241 11.5542 10.6241ZM8.5542 9.12415H6.0542C5.85529 9.12415 5.66452 9.20316 5.52387 9.34382C5.38322 9.48447 5.3042 9.67523 5.3042 9.87415C5.3042 10.0731 5.38322 10.2638 5.52387 10.4045C5.66452 10.5451 5.85529 10.6241 6.0542 10.6241H8.5542C8.75311 10.6241 8.94388 10.5451 9.08453 10.4045C9.22518 10.2638 9.3042 10.0731 9.3042 9.87415C9.3042 9.67523 9.22518 9.48447 9.08453 9.34382C8.94388 9.20316 8.75311 9.12415 8.5542 9.12415ZM6.0542 12.1241C5.85529 12.1241 5.66452 12.2032 5.52387 12.3438C5.38322 12.4845 5.3042 12.6752 5.3042 12.8741C5.3042 13.0731 5.38322 13.2638 5.52387 13.4045C5.66452 13.5451 5.85529 13.6241 6.0542 13.6241H13.0542C13.2531 13.6241 13.4439 13.5451 13.5845 13.4045C13.7252 13.2638 13.8042 13.0731 13.8042 12.8741C13.8042 12.6752 13.7252 12.4845 13.5845 12.3438C13.4439 12.2032 13.2531 12.1241 13.0542 12.1241H6.0542ZM16.0542 13.6241H18.5542C18.7531 13.6241 18.9439 13.5451 19.0845 13.4045C19.2252 13.2638 19.3042 13.0731 19.3042 12.8741C19.3042 12.6752 19.2252 12.4845 19.0845 12.3438C18.9439 12.2032 18.7531 12.1241 18.5542 12.1241H16.0542C15.8553 12.1241 15.6645 12.2032 15.5239 12.3438C15.3832 12.4845 15.3042 12.6752 15.3042 12.8741C15.3042 13.0731 15.3832 13.2638 15.5239 13.4045C15.6645 13.5451 15.8553 13.6241 16.0542 13.6241Z"/>
</mask>
<path d="M5.5542 1.62415V0.124146V1.62415ZM19.0542 1.62415V3.12415V1.62415ZM22.3042 4.87415H20.8042H22.3042ZM13.3042 16.6241V15.1241H12.8042L12.4042 15.4241L13.3042 16.6241ZM8.3042 20.3741L9.2042 21.5741L8.3042 20.3741ZM6.3042 16.6241H7.8042V15.1241H6.3042V16.6241ZM5.5542 16.6241V18.1241V16.6241ZM2.3042 13.3741H0.804199H2.3042ZM5.3042 9.87415H3.8042H5.3042ZM5.3042 12.8741H3.8042H5.3042ZM3.8042 4.87415C3.8042 4.41002 3.98857 3.9649 4.31676 3.63671L2.19544 1.51539C1.30464 2.40619 0.804199 3.61437 0.804199 4.87415H3.8042ZM4.31676 3.63671C4.64495 3.30852 5.09007 3.12415 5.5542 3.12415V0.124146C4.29442 0.124146 3.08624 0.62459 2.19544 1.51539L4.31676 3.63671ZM5.5542 3.12415H19.0542V0.124146H5.5542V3.12415ZM19.0542 3.12415C19.284 3.12415 19.5116 3.16941 19.7239 3.25736L20.8719 0.485718C20.2956 0.247008 19.678 0.124146 19.0542 0.124146V3.12415ZM19.7239 3.25736C19.9362 3.3453 20.1291 3.47421 20.2916 3.63671L22.413 1.51539C21.9719 1.07431 21.4482 0.724427 20.8719 0.485718L19.7239 3.25736ZM20.2916 3.63671C20.4541 3.79921 20.583 3.99213 20.671 4.20445L23.4426 3.0564C23.2039 2.4801 22.854 1.95647 22.413 1.51539L20.2916 3.63671ZM20.671 4.20445C20.7589 4.41677 20.8042 4.64433 20.8042 4.87415H23.8042C23.8042 4.25037 23.6813 3.6327 23.4426 3.0564L20.671 4.20445ZM20.8042 4.87415V13.3741H23.8042V4.87415H20.8042ZM20.8042 13.3741C20.8042 13.604 20.7589 13.8315 20.671 14.0438L23.4426 15.1919C23.6813 14.6156 23.8042 13.9979 23.8042 13.3741H20.8042ZM20.671 14.0438C20.583 14.2562 20.4541 14.4491 20.2916 14.6116L22.413 16.7329C22.854 16.2918 23.2039 15.7682 23.4426 15.1919L20.671 14.0438ZM20.2916 14.6116C20.1291 14.7741 19.9362 14.903 19.7239 14.9909L20.8719 17.7626C21.4482 17.5239 21.9719 17.174 22.413 16.7329L20.2916 14.6116ZM19.7239 14.9909C19.5116 15.0789 19.284 15.1241 19.0542 15.1241V18.1241C19.678 18.1241 20.2956 18.0013 20.8719 17.7626L19.7239 14.9909ZM19.0542 15.1241H13.3042V18.1241H19.0542V15.1241ZM12.4042 15.4241L7.4042 19.1741L9.2042 21.5741L14.2042 17.8241L12.4042 15.4241ZM7.4042 19.1741C7.56905 19.0505 7.8042 19.1681 7.8042 19.3741H4.8042C4.8042 21.6402 7.39135 22.9338 9.2042 21.5741L7.4042 19.1741ZM7.8042 19.3741V16.6241H4.8042V19.3741H7.8042ZM6.3042 15.1241H5.5542V18.1241H6.3042V15.1241ZM5.5542 15.1241C5.09007 15.1241 4.64495 14.9398 4.31676 14.6116L2.19544 16.7329C3.08624 17.6237 4.29442 18.1241 5.5542 18.1241V15.1241ZM4.31676 14.6116C3.98857 14.2834 3.8042 13.8383 3.8042 13.3741H0.804199C0.804199 14.6339 1.30464 15.8421 2.19544 16.7329L4.31676 14.6116ZM3.8042 13.3741V4.87415H0.804199V13.3741H3.8042ZM11.5542 12.1241H18.5542V9.12415H11.5542V12.1241ZM18.5542 12.1241C19.1509 12.1241 19.7232 11.8871 20.1452 11.4651L18.0239 9.34381C18.1645 9.20316 18.3553 9.12415 18.5542 9.12415V12.1241ZM20.1452 11.4651C20.5671 11.0432 20.8042 10.4709 20.8042 9.87415H17.8042C17.8042 9.67523 17.8832 9.48447 18.0239 9.34381L20.1452 11.4651ZM20.8042 9.87415C20.8042 9.27741 20.5671 8.70511 20.1452 8.28316L18.0239 10.4045C17.8832 10.2638 17.8042 10.0731 17.8042 9.87415H20.8042ZM20.1452 8.28316C19.7232 7.8612 19.1509 7.62415 18.5542 7.62415V10.6241C18.3553 10.6241 18.1645 10.5451 18.0239 10.4045L20.1452 8.28316ZM18.5542 7.62415H11.5542V10.6241H18.5542V7.62415ZM11.5542 7.62415C10.9575 7.62415 10.3852 7.8612 9.96321 8.28316L12.0845 10.4045C11.9439 10.5451 11.7531 10.6241 11.5542 10.6241V7.62415ZM9.96321 8.28316C9.54125 8.70511 9.3042 9.27741 9.3042 9.87415H12.3042C12.3042 10.0731 12.2252 10.2638 12.0845 10.4045L9.96321 8.28316ZM9.3042 9.87415C9.3042 10.4709 9.54125 11.0432 9.96321 11.4651L12.0845 9.34381C12.2252 9.48447 12.3042 9.67523 12.3042 9.87415H9.3042ZM9.96321 11.4651C10.3852 11.8871 10.9575 12.1241 11.5542 12.1241V9.12415C11.7531 9.12415 11.9439 9.20316 12.0845 9.34381L9.96321 11.4651ZM8.5542 7.62415H6.0542V10.6241H8.5542V7.62415ZM6.0542 7.62415C5.45746 7.62415 4.88516 7.8612 4.46321 8.28316L6.58453 10.4045C6.44388 10.5451 6.25311 10.6241 6.0542 10.6241V7.62415ZM4.46321 8.28316C4.04125 8.70511 3.8042 9.27741 3.8042 9.87415H6.8042C6.8042 10.0731 6.72518 10.2638 6.58453 10.4045L4.46321 8.28316ZM3.8042 9.87415C3.8042 10.4709 4.04125 11.0432 4.46321 11.4651L6.58453 9.34381C6.72518 9.48447 6.8042 9.67523 6.8042 9.87415H3.8042ZM4.46321 11.4651C4.88516 11.8871 5.45746 12.1241 6.0542 12.1241V9.12415C6.25311 9.12415 6.44388 9.20316 6.58453 9.34381L4.46321 11.4651ZM6.0542 12.1241H8.5542V9.12415H6.0542V12.1241ZM8.5542 12.1241C9.15094 12.1241 9.72323 11.8871 10.1452 11.4651L8.02387 9.34381C8.16452 9.20316 8.35528 9.12415 8.5542 9.12415V12.1241ZM10.1452 11.4651C10.5671 11.0432 10.8042 10.4709 10.8042 9.87415H7.8042C7.8042 9.67523 7.88322 9.48447 8.02387 9.34381L10.1452 11.4651ZM10.8042 9.87415C10.8042 9.27741 10.5671 8.70511 10.1452 8.28316L8.02387 10.4045C7.88322 10.2638 7.8042 10.0731 7.8042 9.87415H10.8042ZM10.1452 8.28316C9.72323 7.8612 9.15094 7.62415 8.5542 7.62415V10.6241C8.35528 10.6241 8.16452 10.5451 8.02387 10.4045L10.1452 8.28316ZM6.0542 10.6241C5.45746 10.6241 4.88516 10.8612 4.46321 11.2832L6.58453 13.4045C6.44388 13.5451 6.25311 13.6241 6.0542 13.6241V10.6241ZM4.46321 11.2832C4.04125 11.7051 3.8042 12.2774 3.8042 12.8741H6.8042C6.8042 13.0731 6.72518 13.2638 6.58453 13.4045L4.46321 11.2832ZM3.8042 12.8741C3.8042 13.4709 4.04125 14.0432 4.46321 14.4651L6.58453 12.3438C6.72518 12.4845 6.8042 12.6752 6.8042 12.8741H3.8042ZM4.46321 14.4651C4.88516 14.8871 5.45746 15.1241 6.0542 15.1241V12.1241C6.25311 12.1241 6.44388 12.2032 6.58453 12.3438L4.46321 14.4651ZM6.0542 15.1241H13.0542V12.1241H6.0542V15.1241ZM13.0542 15.1241C13.6509 15.1241 14.2232 14.8871 14.6452 14.4651L12.5239 12.3438C12.6645 12.2032 12.8553 12.1241 13.0542 12.1241V15.1241ZM14.6452 14.4651C15.0671 14.0432 15.3042 13.4709 15.3042 12.8741H12.3042C12.3042 12.6752 12.3832 12.4845 12.5239 12.3438L14.6452 14.4651ZM15.3042 12.8741C15.3042 12.2774 15.0671 11.7051 14.6452 11.2832L12.5239 13.4045C12.3832 13.2638 12.3042 13.0731 12.3042 12.8741H15.3042ZM14.6452 11.2832C14.2232 10.8612 13.6509 10.6241 13.0542 10.6241V13.6241C12.8553 13.6241 12.6645 13.5451 12.5239 13.4045L14.6452 11.2832ZM13.0542 10.6241H6.0542V13.6241H13.0542V10.6241ZM16.0542 15.1241H18.5542V12.1241H16.0542V15.1241ZM18.5542 15.1241C19.1509 15.1241 19.7232 14.8871 20.1452 14.4651L18.0239 12.3438C18.1645 12.2032 18.3553 12.1241 18.5542 12.1241V15.1241ZM20.1452 14.4651C20.5671 14.0432 20.8042 13.4709 20.8042 12.8741H17.8042C17.8042 12.6752 17.8832 12.4845 18.0239 12.3438L20.1452 14.4651ZM20.8042 12.8741C20.8042 12.2774 20.5671 11.7051 20.1452 11.2832L18.0239 13.4045C17.8832 13.2638 17.8042 13.0731 17.8042 12.8741H20.8042ZM20.1452 11.2832C19.7232 10.8612 19.1509 10.6241 18.5542 10.6241V13.6241C18.3553 13.6241 18.1645 13.5451 18.0239 13.4045L20.1452 11.2832ZM18.5542 10.6241H16.0542V13.6241H18.5542V10.6241ZM16.0542 10.6241C15.4575 10.6241 14.8852 10.8612 14.4632 11.2832L16.5845 13.4045C16.4439 13.5451 16.2531 13.6241 16.0542 13.6241V10.6241ZM14.4632 11.2832C14.0413 11.7051 13.8042 12.2774 13.8042 12.8741H16.8042C16.8042 13.0731 16.7252 13.2638 16.5845 13.4045L14.4632 11.2832ZM13.8042 12.8741C13.8042 13.4709 14.0413 14.0432 14.4632 14.4651L16.5845 12.3438C16.7252 12.4845 16.8042 12.6752 16.8042 12.8741H13.8042ZM14.4632 14.4651C14.8852 14.8871 15.4575 15.1241 16.0542 15.1241V12.1241C16.2531 12.1241 16.4439 12.2032 16.5845 12.3438L14.4632 14.4651Z" fill="#6B6B6B" mask="url(#path-1-outside-1_6492_4548)"/>
</svg>
