<svg viewBox="0 -1 21 23" xmlns="http://www.w3.org/2000/svg">
<path d="M11.1909 1.62415L11.7212 1.09382C11.5067 0.879317 11.1842 0.81515 10.9039 0.931236C10.6236 1.04732 10.4409 1.3208 10.4409 1.62415L11.1909 1.62415ZM20.1909 10.6241L20.7059 11.1694C20.8532 11.0303 20.9379 10.8375 20.9408 10.6349C20.9437 10.4323 20.8645 10.2371 20.7212 10.0938L20.1909 10.6241ZM11.1909 19.1241H10.4409C10.4409 19.4236 10.619 19.6944 10.894 19.8129C11.169 19.9314 11.4882 19.875 11.7059 19.6694L11.1909 19.1241ZM11.1909 13.6241H11.9409C11.9409 13.2099 11.6051 12.8741 11.1909 12.8741V13.6241ZM1.19092 21.1241H0.440918C0.440918 21.4837 0.696049 21.7926 1.04909 21.8606C1.40213 21.9286 1.75375 21.7365 1.88728 21.4027L1.19092 21.1241ZM11.1909 7.12415V7.87415C11.6051 7.87415 11.9409 7.53836 11.9409 7.12415H11.1909ZM10.6606 2.15448L19.6606 11.1545L20.7212 10.0938L11.7212 1.09382L10.6606 2.15448ZM19.676 10.0789L10.676 18.5789L11.7059 19.6694L20.7059 11.1694L19.676 10.0789ZM11.9409 19.1241V13.6241H10.4409V19.1241H11.9409ZM11.1909 12.8741C7.39439 12.8741 4.70508 14.9146 2.99915 16.8829C2.14447 17.8691 1.52223 18.8522 1.11343 19.588C0.908575 19.9568 0.756107 20.2656 0.653859 20.4847C0.602707 20.5943 0.56404 20.6817 0.537594 20.743C0.52437 20.7737 0.514193 20.7979 0.507034 20.8151C0.503454 20.8237 0.500627 20.8306 0.49855 20.8357C0.497511 20.8383 0.49666 20.8404 0.495995 20.842C0.495663 20.8429 0.495377 20.8436 0.495138 20.8442C0.495018 20.8445 0.494874 20.8448 0.494814 20.845C0.494682 20.8453 0.49456 20.8456 1.19092 21.1241C1.88728 21.4027 1.88718 21.4029 1.88709 21.4032C1.88708 21.4032 1.887 21.4034 1.88697 21.4034C1.88692 21.4036 1.88691 21.4036 1.88694 21.4035C1.88701 21.4034 1.88726 21.4027 1.88769 21.4017C1.88855 21.3996 1.89013 21.3957 1.89244 21.3901C1.89706 21.379 1.90459 21.3611 1.91504 21.3368C1.93596 21.2883 1.96858 21.2145 2.01313 21.119C2.10229 20.928 2.23889 20.6509 2.42466 20.3165C2.79711 19.6461 3.36237 18.7542 4.13268 17.8653C5.67675 16.0837 7.98745 14.3741 11.1909 14.3741V12.8741ZM1.94092 21.1241C1.94092 16.9198 2.56452 13.5961 4.00983 11.3414C5.41398 9.15091 7.65614 7.87415 11.1909 7.87415V6.37415C7.2257 6.37415 4.46785 7.84738 2.74701 10.5319C1.06732 13.1522 0.440918 16.8284 0.440918 21.1241H1.94092ZM11.9409 7.12415V1.62415H10.4409V7.12415H11.9409Z" fill="#6B6B6B"/>
</svg>
