<svg  viewBox="0 0 24 24" fill="none" xmlns="http://www.w3.org/2000/svg">
<path d="M12 17.8189C11.8136 17.8189 11.6574 17.7573 11.5316 17.634C11.4053 17.5111 11.3421 17.3588 11.3421 17.1768V10.0019L8.13486 13.1319C8.00328 13.2603 7.84692 13.3245 7.66578 13.3245C7.48508 13.3245 7.32894 13.2603 7.19736 13.1319C7.06578 13.0035 6.99999 12.8537 6.99999 12.6825C6.99999 12.5112 7.06578 12.3614 7.19736 12.233L11.5395 7.99547C11.6053 7.93126 11.6765 7.88567 11.7533 7.85871C11.83 7.83217 11.9123 7.8189 12 7.8189C12.0877 7.8189 12.1728 7.83217 12.2553 7.85871C12.3373 7.88567 12.4057 7.93126 12.4605 7.99547L16.8026 12.233C16.9342 12.3614 17 12.5112 17 12.6825C17 12.8537 16.9342 13.0035 16.8026 13.1319C16.671 13.2603 16.5147 13.3245 16.3335 13.3245C16.1528 13.3245 15.9967 13.2603 15.8651 13.1319L12.6579 10.0019V17.1768C12.6579 17.3588 12.5949 17.5111 12.4691 17.634C12.3428 17.7573 12.1864 17.8189 12 17.8189Z" fill="url(#paint0_linear_6492_4540)"/>
<path fill-rule="evenodd" clip-rule="evenodd" d="M19.3333 2.54081H4.66667C3.14788 2.54081 1.91667 3.77203 1.91667 5.29081V19.9575C1.91667 21.4763 3.14788 22.7075 4.66667 22.7075H19.3333C20.8521 22.7075 22.0833 21.4763 22.0833 19.9575V5.29081C22.0833 3.77203 20.8521 2.54081 19.3333 2.54081ZM4.66667 1.62415C2.64162 1.62415 1 3.26577 1 5.29081V19.9575C1 21.9825 2.64162 23.6241 4.66667 23.6241H19.3333C21.3584 23.6241 23 21.9825 23 19.9575V5.29081C23 3.26577 21.3584 1.62415 19.3333 1.62415H4.66667Z" fill="url(#paint1_linear_6492_4540)"/>
<defs>
<linearGradient id="paint0_linear_6492_4540" x1="23" y1="12.6241" x2="1" y2="12.6241" gradientUnits="userSpaceOnUse">
<stop stop-color="#D1B606"/>
<stop offset="1" stop-color="#E37A1E"/>
</linearGradient>
<linearGradient id="paint1_linear_6492_4540" x1="23" y1="12.6241" x2="1" y2="12.6241" gradientUnits="userSpaceOnUse">
<stop stop-color="#D1B606"/>
<stop offset="1" stop-color="#E37A1E"/>
</linearGradient>
</defs>
</svg>
