<svg width="16" height="19" viewBox="0 0 16 19" fill="none" xmlns="http://www.w3.org/2000/svg">
<path d="M3 18.2949C2.45 18.2949 1.97934 18.0993 1.588 17.7079C1.19667 17.3166 1.00067 16.8456 1 16.2949V3.29492C0.71667 3.29492 0.479337 3.19892 0.288004 3.00692C0.0966702 2.81492 0.000670115 2.57759 3.44827e-06 2.29492C-0.000663218 2.01226 0.0953369 1.77492 0.288004 1.58292C0.48067 1.39092 0.718003 1.29492 1 1.29492H5C5 1.01159 5.096 0.774255 5.288 0.582922C5.48 0.391589 5.71734 0.295589 6 0.294922H10C10.2833 0.294922 10.521 0.390922 10.713 0.582922C10.905 0.774922 11.0007 1.01226 11 1.29492H15C15.2833 1.29492 15.521 1.39092 15.713 1.58292C15.905 1.77492 16.0007 2.01226 16 2.29492C15.9993 2.57759 15.9033 2.81525 15.712 3.00792C15.5207 3.20059 15.2833 3.29626 15 3.29492V16.2949C15 16.8449 14.8043 17.3159 14.413 17.7079C14.0217 18.0999 13.5507 18.2956 13 18.2949H3ZM6 14.2949C6.28334 14.2949 6.521 14.1989 6.713 14.0069C6.905 13.8149 7.00067 13.5776 7 13.2949V6.29492C7 6.01159 6.904 5.77426 6.712 5.58292C6.52 5.39159 6.28267 5.29559 6 5.29492C5.71734 5.29426 5.48 5.39026 5.288 5.58292C5.096 5.77559 5 6.01292 5 6.29492V13.2949C5 13.5783 5.096 13.8159 5.288 14.0079C5.48 14.1999 5.71734 14.2956 6 14.2949ZM10 14.2949C10.2833 14.2949 10.521 14.1989 10.713 14.0069C10.905 13.8149 11.0007 13.5776 11 13.2949V6.29492C11 6.01159 10.904 5.77426 10.712 5.58292C10.52 5.39159 10.2827 5.29559 10 5.29492C9.71734 5.29426 9.48 5.39026 9.288 5.58292C9.096 5.77559 9 6.01292 9 6.29492V13.2949C9 13.5783 9.096 13.8159 9.288 14.0079C9.48 14.1999 9.71734 14.2956 10 14.2949Z" fill="#D9D9D9"/>
</svg>
