<svg width="217" height="227" viewBox="0 0 217 227" fill="none" xmlns="http://www.w3.org/2000/svg">
<path d="M133.267 142.23C133.267 142.23 139.52 142.47 137.969 150.212C131.763 148.491 133.267 142.23 133.267 142.23Z" fill="#F8F4ED"/>
<path d="M144.345 145.147C137.931 145.731 137.116 139.344 137.116 139.344C137.116 139.344 143.049 137.358 144.345 145.147Z" fill="#F8F4ED"/>
<path d="M150.447 145.237C144.718 142.3 147.46 136.471 147.46 136.471C147.46 136.471 153.536 137.969 150.447 145.237Z" fill="#F8F4ED"/>
<path d="M157.18 139.138C150.821 140.155 149.574 133.837 149.574 133.837C149.574 133.837 155.359 131.455 157.18 139.138Z" fill="#F8F4ED"/>
<path d="M164.468 146.305C158.028 146.254 157.848 139.818 157.848 139.818C157.848 139.818 163.949 138.426 164.468 146.305Z" fill="#F8F4ED"/>
<path d="M160.812 136.032C160.812 136.032 166.024 132.575 169.305 139.759C163.264 141.987 160.812 136.032 160.812 136.032Z" fill="#F8F4ED"/>
<path d="M175.221 138.262C168.924 136.913 170.053 130.573 170.053 130.573C170.053 130.573 176.309 130.442 175.221 138.262Z" fill="#F8F4ED"/>
<path d="M171.407 127.481C171.407 127.481 176.372 123.68 180.134 130.626C174.257 133.258 171.407 127.481 171.407 127.481Z" fill="#F8F4ED"/>
<path d="M160.862 131.882C155.275 135.08 151.867 129.613 151.867 129.613C151.867 129.613 156.432 125.341 160.862 131.882Z" fill="#F8F4ED"/>
<path d="M166.447 129.427C160.013 129.139 160.072 122.7 160.072 122.7C160.072 122.7 166.22 121.535 166.447 129.427Z" fill="#F8F4ED"/>
<path d="M146.741 112.64C146.741 112.64 151.413 116.796 145.281 121.783C141.589 116.516 146.741 112.64 146.741 112.64Z" fill="#F8F4ED"/>
<path d="M149.682 106.146C149.682 106.146 155.912 106.736 153.927 114.378C147.828 112.313 149.682 106.146 149.682 106.146Z" fill="#F8F4ED"/>
<path d="M198.567 108.068C198.567 108.068 203.238 112.224 197.106 117.212C193.415 111.944 198.567 108.068 198.567 108.068Z" fill="#F8F4ED"/>
<path d="M206.238 114.13C200.139 112.065 201.992 105.897 201.992 105.897C201.992 105.897 208.222 106.488 206.238 114.13Z" fill="#F8F4ED"/>
<path d="M140.651 122.538C134.98 119.491 137.833 113.716 137.833 113.716C137.833 113.716 143.879 115.33 140.651 122.538Z" fill="#F8F4ED"/>
<path d="M162.951 119.906C156.566 119.061 157.185 112.651 157.185 112.651C157.185 112.651 163.411 112.024 162.951 119.906Z" fill="#F8F4ED"/>
<path d="M167.476 122.731C162.539 118.603 166.504 113.523 166.504 113.523C166.504 113.523 172.097 116.323 167.476 122.731Z" fill="#F8F4ED"/>
<path d="M172.648 116.505C172.648 116.505 178.818 115.458 178.893 123.352C172.465 122.941 172.648 116.505 172.648 116.505Z" fill="#F8F4ED"/>
<path d="M160.739 110.256C154.302 110.48 153.847 104.058 153.847 104.058C153.847 104.058 159.883 102.407 160.739 110.256Z" fill="#F8F4ED"/>
<path d="M166.827 110.688C161.272 107.435 164.337 101.769 164.337 101.769C164.337 101.769 170.319 103.604 166.827 110.688Z" fill="#F8F4ED"/>
<path d="M84.9403 62.1426C84.9403 62.1426 86.3568 68.2257 78.4651 68.7734C78.4915 62.3451 84.9403 62.1426 84.9403 62.1426Z" fill="#F8F4ED"/>
<path d="M92.9118 59.5574C92.9118 59.5574 96.0053 64.9863 88.597 67.7543C86.7879 61.5851 92.9118 59.5574 92.9118 59.5574Z" fill="#F8F4ED"/>
<path d="M82.797 77.9104C79.8233 72.2087 85.4358 69.0341 85.4358 69.0341C85.4358 69.0341 89.5268 73.7601 82.797 77.9104Z" fill="#F8F4ED"/>
<path d="M97.0165 61.7618C97.0165 61.7618 101.837 65.7453 95.8899 70.952C92.0094 65.8221 97.0165 61.7618 97.0165 61.7618Z" fill="#F8F4ED"/>
<path d="M104.919 69.0176C104.919 69.0176 106.849 74.9586 99.0324 76.1741C98.5106 69.7672 104.919 69.0176 104.919 69.0176Z" fill="#F8F4ED"/>
<path d="M70.3529 124.949C70.3529 124.949 74.8255 129.59 70.3463 134.208C65.0819 128.315 70.3529 124.949 70.3529 124.949Z" fill="#F8F4ED"/>
<path d="M62.2781 133.061C59.4457 125.69 65.5701 124.404 65.5701 124.404C65.5701 124.404 68.1061 130.325 62.2781 133.061Z" fill="#F8F4ED"/>
<path d="M57.0609 136.222C50.711 131.513 55.1914 127.153 55.1914 127.153C55.1914 127.153 60.5119 130.795 57.0609 136.222Z" fill="#F8F4ED"/>
<path d="M52.0329 125.949C52.0329 125.949 54.1615 132.027 48.1608 134.363C45.8354 126.816 52.0329 125.949 52.0329 125.949Z" fill="#F8F4ED"/>
<path d="M49.4073 143.718C45.8596 136.661 51.8262 134.779 51.8262 134.779C51.8262 134.779 54.9357 140.421 49.4073 143.718Z" fill="#F8F4ED"/>
<path d="M74.3141 157C81.1039 152.948 83.4249 158.749 83.4249 158.749C83.4249 158.749 78.0164 162.26 74.3141 157Z" fill="#F8F4ED"/>
<path d="M40.6776 130.667C40.6776 130.667 41.5838 137.042 35.2432 138.171C34.4289 130.318 40.6776 130.667 40.6776 130.667Z" fill="#F8F4ED"/>
<path d="M41.3061 129.964C41.8092 122.085 47.9128 123.464 47.9128 123.464C47.9128 123.464 47.7462 129.901 41.3061 129.964Z" fill="#F8F4ED"/>
<path d="M37.3306 121.647C37.3306 121.647 40.6468 127.17 35.2438 130.669C31.4371 123.747 37.3306 121.647 37.3306 121.647Z" fill="#F8F4ED"/>
<path d="M46.1427 121.527C42.5714 114.483 48.5319 112.581 48.5319 112.581C48.5319 112.581 51.6607 118.211 46.1427 121.527Z" fill="#F8F4ED"/>
<path d="M41.2302 106.066C41.2302 106.066 45.9569 110.449 41.7438 115.31C36.1566 109.721 41.2302 106.066 41.2302 106.066Z" fill="#F8F4ED"/>
<path d="M66.8266 134.602C66.8266 134.602 72.2164 138.141 68.8704 143.633C62.4315 139.047 66.8266 134.602 66.8266 134.602Z" fill="#F8F4ED"/>
<path d="M89.1738 161.613C82.7348 157.027 87.1305 152.581 87.1305 152.581C87.1305 152.581 92.5203 156.12 89.1738 161.613Z" fill="#F8F4ED"/>
<path d="M76.4713 165.743C76.4713 165.743 80.4798 160.697 85.6662 164.508C80.5205 170.505 76.4713 165.743 76.4713 165.743Z" fill="#F8F4ED"/>
<path d="M83.4387 174.053C83.4387 174.053 81.6538 167.865 87.776 165.868C89.6742 173.532 83.4387 174.053 83.4387 174.053Z" fill="#F8F4ED"/>
<path d="M34.7236 111.522C34.7236 111.522 38.5084 116.737 33.4298 120.691C29.0358 114.126 34.7236 111.522 34.7236 111.522Z" fill="#F8F4ED"/>
<path d="M30.9609 125.414C23.7252 122.222 27.1294 116.981 27.1294 116.981C27.1294 116.981 33.1246 119.359 30.9609 125.414Z" fill="#F8F4ED"/>
<path d="M30.1476 113.069C26.905 105.868 32.9476 104.242 32.9476 104.242C32.9476 104.242 35.8124 110.011 30.1476 113.069Z" fill="#F8F4ED"/>
<path d="M25.4127 114.699C18.8082 110.354 23.0362 105.749 23.0362 105.749C23.0362 105.749 28.553 109.087 25.4127 114.699Z" fill="#F8F4ED"/>
<path d="M19.4186 104.66C19.4186 104.66 21.2777 110.826 15.1802 112.896C13.1891 105.256 19.4186 104.66 19.4186 104.66Z" fill="#F8F4ED"/>
<path d="M104.717 10.3158C109.762 14.3124 105.933 19.495 105.933 19.495C105.933 19.495 100.267 16.8434 104.717 10.3158Z" fill="#F8F4ED"/>
<path d="M103.977 25.0491C103.977 25.0491 97.7374 24.5717 99.5828 16.8944C105.718 18.8491 103.977 25.0491 103.977 25.0491Z" fill="#F8F4ED"/>
<path d="M90.6133 19.2826C90.6133 19.2826 85.6018 15.5422 91.2825 10.048C95.4131 14.9798 90.6133 19.2826 90.6133 19.2826Z" fill="#F8F4ED"/>
<path d="M96.2913 31.7062C96.2913 31.7062 91.2226 28.0438 96.818 22.4622C101.024 27.3304 96.2913 31.7062 96.2913 31.7062Z" fill="#F8F4ED"/>
<path d="M78.7857 3.61529C84.6978 6.16487 82.3516 12.1629 82.3516 12.1629C82.3516 12.1629 76.1897 11.0731 78.7857 3.61529Z" fill="#F8F4ED"/>
<path d="M85.6189 8.70951C85.6189 8.70951 81.8088 3.75523 88.768 0C91.4068 5.86415 85.6189 8.70951 85.6189 8.70951Z" fill="#F8F4ED"/>
<path d="M73.2952 8.56848C79.7292 8.86372 79.6633 15.3024 79.6633 15.3024C79.6633 15.3024 73.5135 16.4609 73.2952 8.56848Z" fill="#F8F4ED"/>
<path d="M65.7433 6.84315C71.0166 10.5336 67.5029 15.9341 67.5029 15.9341C67.5029 15.9341 61.6897 13.6226 65.7433 6.84315Z" fill="#F8F4ED"/>
<path d="M58.2393 11.9676C64.6783 11.8271 65.0494 18.2554 65.0494 18.2554C65.0494 18.2554 58.9926 19.827 58.2393 11.9676Z" fill="#F8F4ED"/>
<path d="M76.479 18.3009C82.8728 17.5266 83.878 23.8868 83.878 23.8868C83.878 23.8868 78.0065 26.0473 76.479 18.3009Z" fill="#F8F4ED"/>
<path d="M54.5392 44.4948C60.9331 43.7204 61.9382 50.0807 61.9382 50.0807C61.9382 50.0807 56.0673 52.2412 54.5392 44.4948Z" fill="#F8F4ED"/>
<path d="M73.6235 27.0647C73.6235 27.0647 67.5062 25.7482 70.3765 18.3914C76.1903 21.1572 73.6235 27.0647 73.6235 27.0647Z" fill="#F8F4ED"/>
<path d="M76.9541 25.2362C82.7607 28.018 80.1779 33.9183 80.1779 33.9183C80.1779 33.9183 74.0639 32.5854 76.9541 25.2362Z" fill="#F8F4ED"/>
<path d="M81.5565 40.3461C81.5565 40.3461 78.8759 34.7031 86.4701 32.4921C87.814 38.7782 81.5565 40.3461 81.5565 40.3461Z" fill="#F8F4ED"/>
<path d="M81.4272 57.8655C81.4272 57.8655 83.3551 51.924 90.4005 55.5135C87.0584 61.0083 81.4272 57.8655 81.4272 57.8655Z" fill="#F8F4ED"/>
<path d="M84.4729 50.4231C84.4729 50.4231 80.713 45.431 87.7095 41.7454C90.2884 47.6354 84.4729 50.4231 84.4729 50.4231Z" fill="#F8F4ED"/>
<path d="M72.3616 37.442C72.3616 37.442 66.3817 35.6003 69.8817 28.5195C75.4326 31.7792 72.3616 37.442 72.3616 37.442Z" fill="#F8F4ED"/>
<path d="M66.8161 24.1585C69.7524 29.8794 64.1185 33.0172 64.1185 33.0172C64.1185 33.0172 60.0594 28.2644 66.8161 24.1585Z" fill="#F8F4ED"/>
<path d="M59.6233 27.883C59.6233 27.883 53.5324 26.4496 56.5435 19.1488C62.3028 22.0259 59.6233 27.883 59.6233 27.883Z" fill="#F8F4ED"/>
<path d="M47.7863 20.4663C53.8024 22.7613 51.7151 28.8543 51.7151 28.8543C51.7151 28.8543 45.512 28.0278 47.7863 20.4663Z" fill="#F8F4ED"/>
<path d="M61.5275 44.6857C61.5275 44.6857 56.7343 40.6704 62.7147 35.5026C66.561 40.6583 61.5275 44.6857 61.5275 44.6857Z" fill="#F8F4ED"/>
<path d="M62.4584 56.9353C62.4584 56.9353 60.221 51.103 67.9637 49.4825C68.8188 55.8532 62.4584 56.9353 62.4584 56.9353Z" fill="#F8F4ED"/>
<path d="M192.244 118.176C186.689 114.922 189.754 109.256 189.754 109.256C189.754 109.256 195.735 111.092 192.244 118.176Z" fill="#F8F4ED"/>
<path d="M207.591 85.8083C205.591 91.9183 199.39 90.1386 199.39 90.1386C199.39 90.1386 199.911 83.915 207.591 85.8083Z" fill="#F8F4ED"/>
<path d="M209.896 90.0947C209.896 90.0947 207.343 84.393 214.985 82.3527C216.188 88.6679 209.896 90.0947 209.896 90.0947Z" fill="#F8F4ED"/>
<path d="M202.806 79.2247C203.104 85.6459 196.674 86.1727 196.674 86.1727C196.674 86.1727 194.952 80.168 202.806 79.2247Z" fill="#F8F4ED"/>
<path d="M194.261 75.7301C194.261 75.7301 196.032 69.7403 203.17 73.1443C199.973 78.7248 194.261 75.7301 194.261 75.7301Z" fill="#F8F4ED"/>
<path d="M191.719 73.5054C191.719 73.5054 189.594 67.6314 197.366 66.1591C198.099 72.5445 191.719 73.5054 191.719 73.5054Z" fill="#F8F4ED"/>
<path d="M201.499 67.7499C201.499 67.7499 200.38 61.6054 208.288 61.4407C207.949 67.8597 201.499 67.7499 201.499 67.7499Z" fill="#F8F4ED"/>
<path d="M194.42 62.3983C194.42 62.3983 191.192 57.0473 198.531 54.0982C200.491 60.2208 194.42 62.3983 194.42 62.3983Z" fill="#F8F4ED"/>
<path d="M187.594 71.0294C187.594 71.0294 183.522 66.2869 190.268 62.1635C193.219 67.8767 187.594 71.0294 187.594 71.0294Z" fill="#F8F4ED"/>
<path d="M186.032 59.1348C185.456 65.5368 179.013 65.1899 179.013 65.1899C179.013 65.1899 178.122 59.008 186.032 59.1348Z" fill="#F8F4ED"/>
<path d="M169.286 77.6596C169.286 77.6596 173.655 73.1882 178.373 79.5254C172.935 82.9695 169.286 77.6596 169.286 77.6596Z" fill="#F8F4ED"/>
<path d="M161.488 76.325C161.488 76.325 162.357 70.1404 169.919 72.4606C167.578 78.4493 161.488 76.325 161.488 76.325Z" fill="#F8F4ED"/>
<path d="M165.896 86.7846C165.896 86.7846 167.782 80.8293 174.853 84.37C171.549 89.8878 165.896 86.7846 165.896 86.7846Z" fill="#F8F4ED"/>
<path d="M169.491 68.8848C169.491 68.8848 169.141 62.6491 177.01 63.4613C175.878 69.7892 169.491 68.8848 169.491 68.8848Z" fill="#F8F4ED"/>
<path d="M170.233 61.5615C166.672 66.9175 161.172 63.5519 161.172 63.5519C161.172 63.5519 163.338 57.6916 170.233 61.5615Z" fill="#F8F4ED"/>
<path d="M172.143 55.716C172.143 55.716 175.197 50.2645 181.404 55.159C177.05 59.8965 172.143 55.716 172.143 55.716Z" fill="#F8F4ED"/>
<path d="M189.033 86.1474C189.033 86.1474 187.914 80.0029 195.823 79.8382C195.484 86.2572 189.033 86.1474 189.033 86.1474Z" fill="#F8F4ED"/>
<path d="M186.544 80.8513C186.544 80.8513 180.385 79.7422 183.005 72.2921C188.909 74.8609 186.544 80.8513 186.544 80.8513Z" fill="#F8F4ED"/>
<path d="M178.977 89.8829C178.977 89.8829 174.905 85.1404 181.651 81.017C184.602 86.7302 178.977 89.8829 178.977 89.8829Z" fill="#F8F4ED"/>
<path d="M173.279 74.0558C173.279 74.0558 172.388 67.874 180.298 68.0007C179.722 74.4032 173.279 74.0558 173.279 74.0558Z" fill="#F8F4ED"/>
<path d="M188.263 89.2419C188.263 89.2419 193.656 86.0739 196.539 93.4258C190.385 95.3229 188.263 89.2419 188.263 89.2419Z" fill="#F8F4ED"/>
<path d="M217 94.7472C213.084 99.8507 207.825 96.1208 207.825 96.1208C207.825 96.1208 210.382 90.4212 217 94.7472Z" fill="#F8F4ED"/>
<path d="M11.2184 91.9803C11.2184 91.9803 14.6034 97.4614 9.24493 101.027C5.35187 94.1545 11.2184 91.9803 11.2184 91.9803Z" fill="#F8F4ED"/>
<path d="M10.4294 86.8943C10.4294 86.8943 9.90698 93.3122 3.47296 93.0202C4.41159 85.181 10.4294 86.8943 10.4294 86.8943Z" fill="#F8F4ED"/>
<path d="M8.31346 81.3188C8.31346 81.3188 6.13707 87.38 0 85.4291C2.94894 78.103 8.31346 81.3188 8.31346 81.3188Z" fill="#F8F4ED"/>
<path d="M21.8199 94.3762C21.8199 94.3762 22.6089 100.767 16.2486 101.78C15.5794 93.9136 21.8199 94.3762 21.8199 94.3762Z" fill="#F8F4ED"/>
<path d="M16.9893 74.9811C16.9893 74.9811 10.5646 74.3873 10.9297 67.9695C18.7736 68.9951 16.9893 74.9811 16.9893 74.9811Z" fill="#F8F4ED"/>
<path d="M5.30238 64.504C11.6765 69.1795 7.21921 73.5631 7.21921 73.5631C7.21921 73.5631 1.87944 69.9494 5.30238 64.504Z" fill="#F8F4ED"/>
<path d="M20.9654 72.2734C20.9654 72.2734 15.1681 69.4473 17.7866 63.5749C24.7584 67.306 20.9654 72.2734 20.9654 72.2734Z" fill="#F8F4ED"/>
<path d="M27.02 63.4229C27.02 63.4229 20.608 64.1379 19.6649 57.7794C27.5544 57.2004 27.02 63.4229 27.02 63.4229Z" fill="#F8F4ED"/>
<path d="M42.7935 68.9874C42.7935 68.9874 36.3815 69.7025 35.439 63.3439C43.328 62.7649 42.7935 68.9874 42.7935 68.9874Z" fill="#F8F4ED"/>
<path d="M30.1988 62.2738C30.1988 62.2738 24.6066 59.0624 27.6177 53.3804C34.3206 57.5747 30.1988 62.2738 30.1988 62.2738Z" fill="#F8F4ED"/>
<path d="M35.6864 52.2368C40.4664 58.5279 34.9441 61.466 34.9441 61.466C34.9441 61.466 30.8542 56.4865 35.6864 52.2368Z" fill="#F8F4ED"/>
<path d="M29.6819 83.3004C34.4613 89.5915 28.9396 92.5296 28.9396 92.5296C28.9396 92.5296 24.8496 87.5501 29.6819 83.3004Z" fill="#F8F4ED"/>
<path d="M44.4728 75.8393C44.4728 75.8393 38.2604 77.5768 36.3023 71.453C43.995 69.6125 44.4728 75.8393 44.4728 75.8393Z" fill="#F8F4ED"/>
<path d="M45.0348 86.8202C45.0348 86.8202 38.6376 87.6576 37.573 81.3183C45.4499 80.5884 45.0348 86.8202 45.0348 86.8202Z" fill="#F8F4ED"/>
<path d="M50.6489 78.6216C50.6489 78.6216 50.2547 72.1944 56.665 71.5732C56.8492 79.4662 50.6489 78.6216 50.6489 78.6216Z" fill="#F8F4ED"/>
<path d="M61.8327 76.9018C61.8327 76.9018 57.0549 72.5747 61.2102 67.6638C66.8629 73.1866 61.8327 76.9018 61.8327 76.9018Z" fill="#F8F4ED"/>
<path d="M24.0677 66.6826C31.3744 69.7085 28.0917 75.0255 28.0917 75.0255C28.0917 75.0255 22.0426 72.7844 24.0677 66.6826Z" fill="#F8F4ED"/>
<path d="M30.119 51.4954C30.119 51.4954 30.1003 45.0567 36.536 44.8087C36.26 52.6989 30.119 51.4954 30.119 51.4954Z" fill="#F8F4ED"/>
<path d="M53.12 91.7345C53.12 91.7345 49.0296 86.7549 53.8624 82.5052C58.6423 88.7963 53.12 91.7345 53.12 91.7345Z" fill="#F8F4ED"/>
<path d="M46.7217 73.9516C46.7217 73.9516 43.1097 68.6164 48.3142 64.8299C52.4921 71.5343 46.7217 73.9516 46.7217 73.9516Z" fill="#F8F4ED"/>
<path d="M19.4241 80.2218C24.7903 74.4213 28.6586 79.3306 28.6586 79.3306C28.6586 79.3306 24.4647 84.2234 19.4241 80.2218Z" fill="#F8F4ED"/>
<path d="M6.89204 76.201C14.6331 74.575 14.9372 80.8128 14.9372 80.8128C14.9372 80.8128 8.67856 82.3768 6.89204 76.201Z" fill="#F8F4ED"/>
<path d="M160.283 52.2554C160.283 52.2554 158.902 46.1641 166.796 45.662C166.733 52.0892 160.283 52.2554 160.283 52.2554Z" fill="#F8F4ED"/>
<path d="M169.32 55.2671C165.814 60.6593 160.28 57.3497 160.28 57.3497C160.28 57.3497 162.385 51.4685 169.32 55.2671Z" fill="#F8F4ED"/>
<path d="M104.653 105.847C104.653 105.847 103.762 99.6647 111.672 99.7915C111.096 106.193 104.653 105.847 104.653 105.847Z" fill="#F8F4ED"/>
<path d="M132.167 131.905C132.167 131.905 131.276 125.723 139.186 125.85C138.61 132.252 132.167 131.905 132.167 131.905Z" fill="#F8F4ED"/>
<path d="M94.9259 118.316C94.9259 118.316 99.2952 113.844 104.013 120.182C98.5754 123.626 94.9259 118.316 94.9259 118.316Z" fill="#F8F4ED"/>
<path d="M87.1277 116.981C87.1277 116.981 87.9971 110.796 95.5588 113.117C93.2181 119.105 87.1277 116.981 87.1277 116.981Z" fill="#F8F4ED"/>
<path d="M102.65 104.117C101.519 110.445 95.1311 109.541 95.1311 109.541C95.1311 109.541 94.7813 103.305 102.65 104.117Z" fill="#F8F4ED"/>
<path d="M86.8126 104.208C86.8126 104.208 88.978 98.3482 95.8734 102.218C92.3124 107.574 86.8126 104.208 86.8126 104.208Z" fill="#F8F4ED"/>
<path d="M107.044 95.8156C102.691 100.553 97.7836 96.3726 97.7836 96.3726C97.7836 96.3726 100.837 90.9212 107.044 95.8156Z" fill="#F8F4ED"/>
<path d="M177.877 49.4051C177.877 49.4051 180.93 43.9537 187.138 48.8481C182.784 53.5857 177.877 49.4051 177.877 49.4051Z" fill="#F8F4ED"/>
<path d="M106.468 84.2838C112.373 86.852 110.007 92.843 110.007 92.843C110.007 92.843 103.849 91.7333 106.468 84.2838Z" fill="#F8F4ED"/>
<path d="M98.9196 114.713C98.9196 114.713 98.0289 108.531 105.939 108.658C105.362 115.06 98.9196 114.713 98.9196 114.713Z" fill="#F8F4ED"/>
<path d="M91.4398 82.1304C91.4398 82.1304 87.6155 77.1871 94.563 73.4121C97.2195 79.2681 91.4398 82.1304 91.4398 82.1304Z" fill="#F8F4ED"/>
<path d="M85.9202 98.0063C85.9202 98.0063 88.0251 92.1246 94.96 95.9238C91.4546 101.316 85.9202 98.0063 85.9202 98.0063Z" fill="#F8F4ED"/>
<path d="M114.655 87.1198C113.369 80.8211 119.641 79.312 119.641 79.312C119.641 79.312 122.269 84.9802 114.655 87.1198Z" fill="#F8F4ED"/>
<path d="M142.578 50.8813C143.869 57.179 137.598 58.6936 137.598 58.6936C137.598 58.6936 134.965 53.0276 142.578 50.8813Z" fill="#F8F4ED"/>
<path d="M151.474 56.6467C151.474 56.6467 145.269 57.46 145.494 49.5681C151.901 50.2223 151.474 56.6467 151.474 56.6467Z" fill="#F8F4ED"/>
<path d="M141.112 72.6077C136.895 77.4659 131.871 73.4264 131.871 73.4264C131.871 73.4264 134.768 67.8904 141.112 72.6077Z" fill="#F8F4ED"/>
<path d="M111.017 79.5913C111.017 79.5913 110.07 73.4182 117.98 73.4725C117.463 79.8794 111.017 79.5913 111.017 79.5913Z" fill="#F8F4ED"/>
<path d="M113.22 95.6016C113.22 95.6016 113.312 89.3572 121.104 90.7209C119.529 96.9532 113.22 95.6016 113.22 95.6016Z" fill="#F8F4ED"/>
<path d="M57.3172 93.839C63.7127 94.5996 63.1782 101.016 63.1782 101.016C63.1782 101.016 56.9608 101.726 57.3172 93.839Z" fill="#F8F4ED"/>
<path d="M69.4137 85.828C69.4137 85.828 72.0415 91.4957 64.427 93.6359C63.1419 87.3377 69.4137 85.828 69.4137 85.828Z" fill="#F8F4ED"/>
<path d="M61.8987 83.9101C61.8987 83.9101 60.9507 77.737 68.8616 77.7913C68.3437 84.1982 61.8987 83.9101 61.8987 83.9101Z" fill="#F8F4ED"/>
<path d="M69.1382 95.2043C73.133 100.246 68.2183 104.418 68.2183 104.418C68.2183 104.418 63.3102 100.543 69.1382 95.2043Z" fill="#F8F4ED"/>
<path d="M135.182 57.612C135.919 63.9975 129.541 64.9627 129.541 64.9627C129.541 64.9627 127.411 59.0898 135.182 57.612Z" fill="#F8F4ED"/>
<path d="M100.077 33.4579C100.077 33.4579 100.464 27.2244 108.182 28.9536C106.314 35.1048 100.077 33.4579 100.077 33.4579Z" fill="#F8F4ED"/>
<path d="M137 48.3998C134.194 54.1855 128.29 51.5887 128.29 51.5887C128.29 51.5887 129.646 45.4919 137 48.3998Z" fill="#F8F4ED"/>
<path d="M174.679 43.0691C175.417 49.4545 169.038 50.4198 169.038 50.4198C169.038 50.4198 166.909 44.5474 174.679 43.0691Z" fill="#F8F4ED"/>
<path d="M167.052 41.0167C167.052 41.0167 168.407 34.9193 175.762 37.8278C172.956 43.6134 167.052 41.0167 167.052 41.0167Z" fill="#F8F4ED"/>
<path d="M143.466 64.352C149.86 65.1191 149.319 71.5354 149.319 71.5354C149.319 71.5354 143.102 72.2389 143.466 64.352Z" fill="#F8F4ED"/>
<path d="M144.681 76.3876C149.152 81.0137 144.671 85.6464 144.671 85.6464C144.671 85.6464 139.406 82.2715 144.681 76.3876Z" fill="#F8F4ED"/>
<path d="M134.658 68.8299C134.658 68.8299 132.026 63.1644 139.638 61.0176C140.929 67.3153 134.658 68.8299 134.658 68.8299Z" fill="#F8F4ED"/>
<path d="M30.0915 36.6155C30.0915 36.6155 36.2215 35.361 36.5646 43.2485C30.1267 43.0542 30.0915 36.6155 30.0915 36.6155Z" fill="#F8F4ED"/>
<path d="M20.416 44.1134C20.416 44.1134 26.546 42.8583 26.8896 50.7463C20.4518 50.5521 20.416 44.1134 20.416 44.1134Z" fill="#F8F4ED"/>
<path d="M56.8932 67.7049C50.4554 67.5107 50.4196 61.072 50.4196 61.072C50.4196 61.072 56.5506 59.8175 56.8932 67.7049Z" fill="#F8F4ED"/>
<path d="M37.1678 32.0426C37.1678 32.0426 40.384 26.6855 46.4413 31.7639C41.9473 36.3686 37.1678 32.0426 37.1678 32.0426Z" fill="#F8F4ED"/>
<path d="M48.3021 46.3792C48.461 52.8053 42.0215 53.1938 42.0215 53.1938C42.0215 53.1938 40.4291 47.1541 48.3021 46.3792Z" fill="#F8F4ED"/>
<path d="M43.6178 60.5347C43.6178 60.5347 42.9134 54.3292 50.8161 54.6931C50.0474 61.0747 43.6178 60.5347 43.6178 60.5347Z" fill="#F8F4ED"/>
<path d="M37.3965 38.4451C37.3965 38.4451 40.1349 32.829 46.6107 37.3635C42.5345 42.3397 37.3965 38.4451 37.3965 38.4451Z" fill="#F8F4ED"/>
<path d="M101.491 52.4135C101.491 52.4135 104.389 46.8781 110.732 51.5947C106.514 56.4535 101.491 52.4135 101.491 52.4135Z" fill="#F8F4ED"/>
<path d="M97.3602 43.7698C97.3602 43.7698 95.2306 37.8975 103.001 36.4191C103.739 42.8045 97.3602 43.7698 97.3602 43.7698Z" fill="#F8F4ED"/>
<path d="M101.931 48.1847C101.931 48.1847 99.298 42.5192 106.911 40.3724C108.201 46.6701 101.931 48.1847 101.931 48.1847Z" fill="#F8F4ED"/>
<path d="M122.263 19.9757C122.263 19.9757 117.133 16.3994 122.632 10.724C126.921 15.5197 122.263 19.9757 122.263 19.9757Z" fill="#F8F4ED"/>
<path d="M43.4869 28.097C43.4869 28.097 38.3566 24.5207 43.8559 18.8453C48.1448 23.641 43.4869 28.097 43.4869 28.097Z" fill="#F8F4ED"/>
<path d="M160.885 32.3373C160.885 32.3373 156.813 27.5949 163.559 23.4714C166.511 29.1846 160.885 32.3373 160.885 32.3373Z" fill="#F8F4ED"/>
<path d="M138.447 10.695C142.972 15.2695 138.545 19.9532 138.545 19.9532C138.545 19.9532 133.241 16.6392 138.447 10.695Z" fill="#F8F4ED"/>
<path d="M147.317 40.3477C146.439 46.7156 140.02 46.0659 140.02 46.0659C140.02 46.0659 139.422 39.8489 147.317 40.3477Z" fill="#F8F4ED"/>
<path d="M148.234 34.0544C148.234 34.0544 144.064 29.397 150.724 25.1353C153.793 30.7865 148.234 34.0544 148.234 34.0544Z" fill="#F8F4ED"/>
<path d="M153.999 39.0098C156.086 45.0907 150.06 47.3933 150.06 47.3933C150.06 47.3933 146.724 42.1098 153.999 39.0098Z" fill="#F8F4ED"/>
<path d="M135.22 29.5946C135.22 29.5946 130.225 25.8328 135.929 20.3626C140.038 25.3125 135.22 29.5946 135.22 29.5946Z" fill="#F8F4ED"/>
<path d="M130.365 36.5508C130.365 36.5508 124.159 35.7512 126.4 28.1798C132.426 30.449 130.365 36.5508 130.365 36.5508Z" fill="#F8F4ED"/>
<path d="M126.603 26.0523C126.603 26.0523 124.406 20.2046 132.159 18.6373C132.971 25.0134 126.603 26.0523 126.603 26.0523Z" fill="#F8F4ED"/>
<path d="M149.901 18.3585C155.68 15.5192 158.734 21.1907 158.734 21.1907C158.734 21.1907 153.908 25.166 149.901 18.3585Z" fill="#F8F4ED"/>
<path d="M163.729 43.2019C163.729 43.2019 157.471 43.2408 158.674 35.4373C164.951 36.8795 163.729 43.2019 163.729 43.2019Z" fill="#F8F4ED"/>
<path d="M145.952 6.06555C150.477 10.6401 146.05 15.3244 146.05 15.3244C146.05 15.3244 140.745 12.0098 145.952 6.06555Z" fill="#F8F4ED"/>
<path d="M115.716 18.8606C120.592 23.0609 116.552 28.0822 116.552 28.0822C116.552 28.0822 111.001 25.1995 115.716 18.8606Z" fill="#F8F4ED"/>
<path d="M123.838 24.66C125.698 30.8139 119.592 32.8927 119.592 32.8927C119.592 32.8927 116.453 27.49 123.838 24.66Z" fill="#F8F4ED"/>
<path d="M76.7737 131.054C77.0624 130.405 77.4313 129.836 77.9537 129.6C79.0755 129.092 80.4144 129.888 81.1836 130.841C83.415 133.606 84.4323 138.51 84.1782 145.127C80.735 141.533 79.5863 136.796 77.4423 132.314C77.2433 131.897 77.0156 131.476 76.7737 131.054Z" fill="#F8F4ED"/>
<path d="M141.546 106.04C139.596 106.78 138.559 107.784 137.684 109.434C137.936 107.888 138.308 106.395 138.745 105.293C139.95 102.254 143.127 99.4534 148.189 96.9675C153.975 94.126 159.725 96.5554 164.802 99.7426C160.916 99.1796 156.958 100.417 153.023 101.267C150.831 101.741 145.861 102.051 144.371 103.994C145.509 104.503 146.793 104.117 147.784 104.847C146.335 105.911 143.366 105.349 141.546 106.04Z" fill="#F8F4ED"/>
<path d="M100.225 183.075C101.156 182.402 102.119 181.706 103.076 181.078C104.61 180.074 106.84 178.784 108.49 179.199C109.195 179.375 109.75 179.849 110.185 180.647C111.095 182.315 110.326 185.529 108.019 189.697C105.598 194.071 99.5965 199.044 93.8059 200.429C94.4107 198.798 94.921 197.112 95.2955 195.318C98.5875 193.769 103.729 190.61 103.439 188.096C103.37 187.495 102.986 186.5 101.213 186.5C101.18 186.5 101.146 186.5 101.111 186.501C99.844 186.528 97.9436 187.104 95.985 187.912C95.9998 187.23 96.0114 186.547 96.0262 185.864C96.5338 185.596 97.0463 185.292 97.5675 184.945C98.4682 184.345 99.3612 183.699 100.225 183.075Z" fill="#F8F4ED"/>
<path d="M137.622 39.7995C133.698 41.1747 130.685 43.6996 128.548 46.8841C128.497 46.9351 128.443 46.9796 128.391 47.0328L127.832 47.6052C127.314 48.1325 126.779 48.6786 126.249 49.2559C126.005 49.5215 125.755 49.7876 125.503 50.0554C123.491 52.1956 121.411 54.4094 121.219 57.5384C121.093 59.5974 121.705 61.9187 122.942 64.0737C123.904 65.7497 125.109 66.8269 126.267 67.7412C126.62 68.0199 127.03 68.4348 127.464 68.8733C127.711 69.123 127.96 69.3743 128.211 69.6152C129.971 72.7207 132.1 75.6753 133.817 78.5607C134.479 79.672 135.083 80.8183 135.618 81.9911C135.533 83.4354 135.282 84.961 134.977 86.2566C134.351 88.9182 133.374 91.0342 131.993 92.7266C129.866 95.3327 128.323 97.4323 127.838 100.73C126.825 107.626 123.186 112.381 117.022 114.863C115.032 115.665 112.893 116.026 110.778 116.31C111.423 114.271 111.355 112.19 111.153 109.748C112.328 110.329 114.218 114.565 114.779 110.737C115.163 108.119 113.937 106.848 115.517 104.133C116.648 102.191 118.05 100.46 119.372 98.6616C119.818 98.2154 120.281 97.7643 120.758 97.3001C124.623 93.5322 129.003 89.2617 128.732 83.431C128.646 81.5647 127.874 77.7233 125.573 76.5467C124.597 76.0468 123.834 76.2482 123.366 76.5039C123.126 76.6356 122.907 76.8227 122.7 77.0412C122.149 75.2928 121.436 73.6059 120.587 72.0265C119.348 69.7222 118.056 66.8039 115.228 66.3956C112.974 66.0702 107.239 69.7639 105.852 67.0986C106.556 66.9026 107.38 67.0426 108.064 66.8192C108.984 66.5185 109.401 65.6948 110.479 65.6065C109.538 62.1887 104.237 62.1311 101.557 60.9798C97.7534 59.3455 94.585 55.8477 92.7138 52.2439C89.6005 46.2486 90.7063 40.2731 89.5862 33.954C88.7069 28.9904 84.3514 24.0202 84.479 18.9644C88.0097 22.5418 91.9677 27.2755 93.4149 32.1617C95.1789 38.1181 94.656 44.9294 98.0344 50.3166C100.71 54.5828 104.576 55.9048 109.183 57.1181C111.192 57.6471 112.478 57.8254 112.514 55.5124C112.541 53.7492 112.086 51.9328 111.69 50.2277C110.94 46.9977 109.892 43.8626 108.992 40.6759C110.914 40.6215 113.108 44.2555 113.635 45.7844C114.423 48.0716 114.155 50.5296 114.551 52.8838C114.846 54.6333 115.796 57.3156 117.38 58.3078C118.226 55.6869 118.811 52.1753 118.658 49.3903C118.48 46.1394 117.557 42.8902 115.594 40.306C113.873 38.0412 111.969 35.4132 111.111 32.6891C109.731 28.3017 109.478 22.6603 110.139 18.1297C112.109 20.0207 111.641 24.3818 111.913 26.933C112.213 29.7493 113.355 32.4399 115.517 34.3612C117.351 35.9905 119.25 37.206 120.937 39.0257C122.764 40.9964 122.879 42.6059 123.77 44.886C124.946 44.8531 127.203 41.1818 128.298 40.3005C132.254 37.1149 138.105 35.6579 141.137 31.5076C142.539 29.5891 143.707 27.0324 144.677 24.8291C145.548 22.8507 145.719 18.5797 147.514 17.3115C147.703 20.3599 147.785 23.7705 146.407 26.5368C144.673 30.016 140.781 31.8681 139.612 35.5778C139.521 35.8643 139.583 36.0827 139.795 36.233C143.932 35.6727 147.512 37.273 151.422 35.3237C153.31 34.3831 155.099 31.9131 157.334 32.024C154.59 39.4708 143.645 37.6889 137.622 39.7995Z" fill="#F8F4ED"/>
<path d="M101.733 187.644C102.225 187.746 102.318 187.982 102.346 188.222C102.531 189.824 98.56 192.469 95.5402 194.002C95.7942 192.385 95.897 190.764 95.9509 189.139C97.9299 188.264 99.9028 187.595 101.186 187.595C101.386 187.595 101.569 187.61 101.733 187.644Z" fill="#F8F4ED"/>
<path d="M54.2973 114.557C55.5625 114.923 56.8305 115.202 57.9803 115.452L58.7413 115.62C60.1671 115.936 61.6282 116.219 63.1749 116.519C68.8386 117.614 74.6947 118.747 79.1387 121.642C83.2929 124.348 84.3767 128.806 85.4253 133.117C86.2238 136.401 86.6059 139.943 86.8742 142.974C86.9386 143.701 86.9913 144.424 87.0447 145.144C87.1074 145.998 87.1789 146.872 87.2625 147.746C86.673 147.295 86.0874 146.84 85.5139 146.372C85.416 146.291 85.328 146.207 85.2334 146.125C85.6519 138.676 84.5846 133.305 82.0403 130.153C80.9791 128.838 79.164 127.85 77.5001 128.6C76.8903 128.876 76.452 129.361 76.1078 129.942C75.6602 129.221 75.1961 128.508 74.7733 127.826C73.4299 125.658 71.5676 124.27 69.3906 122.925C64.1432 119.684 60.6818 121.671 55.4196 122.691C56.7035 121.061 58.3872 120.547 59.956 119.431C58.3482 117.412 56.2603 116.049 54.2973 114.557Z" fill="#F8F4ED"/>
<path d="M86.7335 84.1066C90.3577 82.3291 93.5722 86.1782 97.5098 84.9418C99.3634 84.3595 100.634 83.4815 101.449 81.7913C101.915 80.8249 101.891 79.206 102.94 78.8729C103.583 89.5251 92.0452 86.6243 86.4844 91.8519C81.656 96.3913 81.4135 104.695 82.6023 110.864C83.1346 113.626 84.0639 115.921 86.5388 117.491C87.7265 118.244 89.1738 118.417 90.3412 119.166C91.8857 120.158 92.3652 122 93.6953 123.22C99.0417 128.128 105.39 124.53 109.132 119.477C109.633 118.801 110.02 118.139 110.326 117.478C112.701 117.171 115.132 116.809 117.434 115.882C123.986 113.243 127.853 108.199 128.927 100.889C129.37 97.8691 130.831 95.8886 132.846 93.4203C134.335 91.5956 135.383 89.3347 136.048 86.5074C136.163 86.019 136.349 85.1574 136.501 84.1291C137.308 86.3258 137.835 88.5988 137.974 90.9069C135.853 93.3577 134.04 96.1323 132.419 99.4271C131.489 101.318 131.096 103.253 130.716 105.123C130.183 107.75 129.679 110.232 127.783 112.546C125.469 115.369 122.353 116.553 119.053 117.806C118.095 118.17 117.104 118.546 116.137 118.964C110.921 121.219 105.653 126.147 102.715 131.518C99.0681 138.188 97.2953 145.101 97.2953 152.649C97.2953 154.126 97.3701 155.534 97.4432 156.895C97.468 157.363 97.4927 157.828 97.5142 158.291C97.3899 158.013 97.2574 157.732 97.1155 157.448C95.3928 154.006 92.2541 151.491 89.2409 149.238C88.9802 149.043 88.7196 148.845 88.4584 148.649C88.3193 147.459 88.228 146.242 88.1417 145.063C88.0883 144.338 88.035 143.609 87.9701 142.876C87.8634 141.672 87.7375 140.387 87.5764 139.069C90.5913 134.606 91.1187 130.241 89.1804 125.731C88.1021 123.222 86.1665 121.035 84.2943 118.921C81.3656 115.612 78.5993 112.487 78.8104 108.234C78.9396 105.639 79.5566 103.018 80.1537 100.483C80.9769 96.9862 81.8286 93.3709 81.4602 89.6678C81.1468 86.5217 79.9025 83.5468 77.4253 80.0221C75.6124 77.4423 75.2803 74.3654 75.7729 71.5633C76.2299 73.3161 77.1724 74.958 78.2485 76.3914C79.3355 77.8391 84.3767 84.7601 84.9129 79.881C86.3447 80.7964 86.6895 82.4592 86.7335 84.1066Z" fill="#F8F4ED"/>
<path d="M125.725 161.292C125.236 162.244 124.743 163.212 124.282 164.198C123.996 164.811 123.775 165.558 123.561 166.28C123.302 167.157 123.035 168.056 122.663 168.7C121.905 167.326 121.863 164.156 122.187 161.486C122.49 158.992 123.663 156.564 124.931 154.572C125.014 156.592 125.279 158.622 125.614 160.698C125.646 160.897 125.685 161.094 125.725 161.292Z" fill="#F8F4ED"/>
<path d="M118.818 171.629C120.065 183.425 110.612 195.306 100.69 201.85C98.064 203.581 95.1877 205.032 92.1409 206.16C91.8406 206.271 91.4986 206.387 91.1329 206.506C91.9193 204.898 92.6638 203.306 93.3247 201.673C99.7615 200.471 106.367 194.952 108.982 190.228C110.747 187.039 112.556 182.697 111.151 180.122C110.569 179.055 109.764 178.386 108.758 178.134C106.713 177.626 104.325 178.949 102.473 180.161C101.495 180.801 100.521 181.505 99.58 182.185C98.725 182.804 97.8408 183.443 96.9572 184.031C96.6558 184.232 96.3578 184.413 96.0609 184.585C96.1164 182.862 96.228 181.133 96.5101 179.395C99.3711 177.347 101.664 174.341 103.538 171.622C105.736 168.434 107.065 164.543 107.847 159.007C108.214 156.41 107.71 153.173 107.176 149.746C106.102 142.848 104.991 135.716 110.44 132.286C113.247 130.519 116.684 129.635 120.009 128.78C120.566 128.636 121.12 128.494 121.667 128.348C124.403 127.621 126.974 126.438 129.043 124.99C128.975 125.12 128.903 125.249 128.837 125.38C128.897 128.336 129.277 131.318 128.983 134.26C128.969 134.399 128.941 134.536 128.924 134.674C129.189 134.621 129.44 134.579 129.657 134.561C132.588 134.322 135.295 134.192 138.09 133.366C142.365 132.104 144.716 130.189 145.344 125.732C147.364 126.317 145.526 129.711 145.015 131.158C150.306 130.755 153.536 121.226 154.219 117.178C156.874 117.326 153.21 124.155 152.635 125.677C151.302 129.198 149.569 132.09 146.217 134.255C143.361 136.099 139.925 136.068 137.021 137.455C134.012 138.891 130.55 141.49 128.149 143.726C127.235 144.578 126.487 145.453 125.851 146.351C125.819 146.469 125.792 146.587 125.761 146.705C122.884 149.037 120.442 151.398 118.96 155.725C117.513 159.951 118.107 165.254 118.632 169.934C118.696 170.509 118.759 171.075 118.818 171.629ZM115.94 135.235C115.541 134.744 114.969 134.475 114.286 134.458C113.168 134.431 111.821 135.108 110.881 136.182C109.086 138.234 109.132 140.771 109.324 142.501C109.583 144.848 110.173 146.165 111.18 146.646C111.437 146.769 111.711 146.83 111.999 146.83C112.51 146.83 113.069 146.639 113.67 146.257C115.416 145.146 116.741 142.139 117.105 141.243C118.101 138.797 117.786 137.167 115.94 135.235Z" fill="#F8F4ED"/>
<path d="M113.079 145.331C112.48 145.711 112 145.822 111.655 145.656C111.233 145.455 110.676 144.723 110.417 142.38C110.149 139.959 110.56 138.219 111.71 136.904C112.408 136.105 113.434 135.556 114.22 135.556C114.233 135.556 114.246 135.556 114.259 135.556C114.625 135.565 114.898 135.69 115.095 135.938L115.129 135.977C116.688 137.602 116.921 138.78 116.087 140.831C115.399 142.518 114.248 144.586 113.079 145.331Z" fill="#F8F4ED"/>
<path d="M129.48 172.936C130.918 180.647 125.562 187.597 126.02 195.251C126.207 198.363 127.445 201.918 129.153 205.106C128.896 205.314 128.662 205.539 128.44 205.756C127.721 206.456 127.124 207.056 125.909 207.049C124.262 207.033 122.51 205.774 121.223 203.682C118.902 199.913 119.204 195.225 119.805 191.136C120.423 186.932 121.217 184.079 123.64 181.044C126.468 177.503 127.712 175.327 128.096 171.017C128.169 170.188 128.189 169.375 128.175 168.568C128.715 170.002 129.201 171.445 129.48 172.936Z" fill="#F8F4ED"/>
<path d="M73.1561 222.987L73.2238 222.98C74.5973 222.835 76.0171 222.687 77.422 222.492C79.4268 222.215 81.2172 221.397 82.9487 220.606C83.5651 220.325 84.2024 220.034 84.8386 219.772C89.3712 217.91 92.9882 217.46 95.897 218.399C96.3149 218.534 96.4744 218.649 96.5283 218.7C96.398 218.974 95.5715 219.522 95.1173 219.823C94.1578 220.46 93.1279 221.048 92.1321 221.616C91.6476 221.893 91.1632 222.17 90.6843 222.453C90.2554 222.706 89.8353 222.967 89.4179 223.231C82.5715 223.851 76.0264 226.349 68.97 225.903C69.3131 223.973 71.2822 223.405 73.1561 222.987Z" fill="#F8F4ED"/>
<path d="M104.73 222.042C106.569 220.693 108.471 219.298 110.37 218.045C113.249 216.145 115.513 215.437 118.713 215.437C118.723 215.437 118.733 215.437 118.743 215.437C123.089 215.443 126.089 217.539 129.266 219.757C131.702 221.459 134.221 223.218 137.419 224.01C139.558 224.539 141.7 224.125 143.772 223.726C145.311 223.429 146.902 223.126 148.477 223.206C146.836 223.554 145.138 224.217 143.158 225.182C139.119 227.153 133.353 227.357 128.879 226.575C123.615 225.655 119.344 223.092 113.809 224.155C110.579 224.775 107.353 225.775 103.952 225.313C102.975 225.18 102.035 224.937 101.102 224.663C102.324 223.805 103.531 222.921 104.73 222.042Z" fill="#F8F4ED"/>
<path d="M53.7199 101.962C56.6441 104.545 60.3178 104.104 63.6253 105.636C63.1353 105.719 62.6548 105.822 62.1973 105.923C61.6084 106.052 61.0519 106.174 60.5295 106.244C58.3212 106.542 56.0123 106.121 54.3528 105.116C51.5029 103.39 50.6484 100.188 51.0894 97.0021C51.344 98.7823 52.0186 100.459 53.7199 101.962Z" fill="#F8F4ED"/>
<path d="M20.2825 87.4178C23.0939 88.8622 24.5065 90.9865 26.8429 92.8775C28.8192 94.4772 32.1294 94.632 34.5889 94.9974C36.8967 95.3404 38.8268 96.1416 40.8657 96.6948C41.4348 94.1479 38.7712 92.8303 37.2228 91.4403C35.5193 89.9114 34.5873 88.3008 33.9203 86.1194C33.1532 83.6127 33.4903 81.0104 32.9971 78.4844C32.6204 76.5577 32.3141 74.5832 31.9006 72.657C31.4415 70.5163 29.7435 68.4469 29.4086 66.4516C28.7191 62.3407 31.9061 67.9766 32.5016 69.0401C34.0511 71.8081 35.4297 74.254 35.9609 77.4571C36.4645 80.4946 35.8542 83.8508 37.1491 86.7516C38.2505 89.2194 40.7112 89.3259 42.7336 90.7851C44.0203 91.7136 46.3006 94.7252 47.6131 93.2891C48.7695 92.0231 47.8688 88.3705 47.6335 86.897C47.3013 84.82 46.8741 82.7851 45.9844 80.8765C45.6798 80.2229 43.1366 75.9732 45.588 77.5778C46.7509 78.339 47.6736 81.7458 48.4027 83.0101C49.5646 85.0246 50.6187 87.1308 50.8749 89.4653C51.0195 90.7823 50.9838 92.095 50.9585 93.3808C49.0977 97.8494 49.4205 103.412 53.7821 106.054C55.6505 107.186 58.2283 107.664 60.6774 107.332C61.2438 107.255 61.8486 107.122 62.4332 106.995C63.424 106.778 64.3885 106.569 65.2672 106.569C66.5737 107.406 68.0754 108.423 69.4363 108.463C71.9041 108.536 72.8251 104.508 73.4855 102.8C74.4747 100.243 76.4537 97.3478 76.5659 94.5474C76.7 91.1807 75.597 88.4363 73.667 85.5855C71.9734 83.0842 71.6786 81.2354 71.0754 78.3319C69.974 73.0297 66.0931 68.9106 62.0296 65.607C57.0708 61.5752 52.9952 59.2051 52.0517 52.43C51.6777 49.7476 51.3566 46.9565 50.6154 44.3153C50.0611 42.3397 49.0505 40.5639 49.272 38.4545C50.5351 38.5873 51.0014 40.6457 51.8421 41.4584C53.2971 37.65 51.5634 32.2237 53.5116 28.6304C55.5878 31.0642 54.5475 34.5297 54.1279 37.4524C53.5984 41.1412 53.0277 45.8145 53.919 49.454C54.7735 52.9414 57.1808 55.8581 60.177 57.77C62.4414 59.2144 65.398 59.508 67.4584 61.1697C68.4416 61.9621 70.0538 65.8188 71.115 65.8644C72.4319 65.9203 72.9659 62.4883 73.1006 61.5807C73.8193 56.7504 72.1411 53.6345 69.902 49.5401C68.9079 47.7226 64.8047 41.201 67.3677 39.6178C68.3668 40.7412 68.468 42.7217 69.1899 44.1156C69.9609 45.6049 71.2052 46.9801 72.1422 48.3663C73.1001 49.7838 74.3933 51.0822 74.8734 52.7691C75.2555 54.113 75.0097 55.7742 75.6971 56.9332C78.2903 55.328 77.6299 49.2581 77.1724 46.7963C76.5472 43.4362 75.2313 39.2952 76.9348 36.058C76.457 40.1578 79.2723 45.0578 79.7842 49.1944C80.2164 52.6873 79.9761 56.2241 79.0051 59.6106C78.1467 62.6036 75.9484 65.3063 75.5486 68.3761C74.1063 72.0742 73.8534 76.8524 76.5252 80.6543C78.8885 84.016 80.0729 86.8301 80.3665 89.7781C80.7174 93.2995 79.8871 96.8243 79.0843 100.234C78.4761 102.816 77.847 105.486 77.7134 108.182C77.4797 112.881 80.5255 116.322 83.4711 119.649C85.2857 121.699 87.1618 123.819 88.1708 126.166C89.7935 129.94 89.5219 133.618 87.3477 137.368C87.1277 135.862 86.8544 134.338 86.4948 132.86C85.3962 128.341 84.2602 123.668 79.7408 120.725C75.1164 117.712 69.1531 116.558 63.3855 115.442C61.8465 115.145 60.3926 114.863 58.9816 114.55L58.2162 114.382C56.2493 113.954 53.9146 113.443 51.9158 112.529C51.3313 111.945 50.7886 111.31 50.3124 110.593C47.2551 105.989 44.1869 103.521 38.5997 102.614C36.4854 102.271 33.6657 101.922 31.7945 100.918C29.2211 99.5363 27.3532 96.439 25.4408 94.3384C22.1339 90.7066 17.223 88.4325 13.4932 85.1366C15.9088 85.4593 18.1006 86.2961 20.2825 87.4178Z" fill="#F8F4ED"/>
<path d="M55.9084 223.304C55.027 223.267 54.1862 223.176 53.3702 223.062C54.0883 222.637 54.801 222.16 55.502 221.616C56.257 221.029 57.0027 220.297 57.7241 219.589C58.9794 218.357 60.2771 217.084 61.6688 216.512C63.6902 215.681 66.0865 215.375 68.242 215.67C70.2688 215.947 72.0558 216.778 73.9479 217.658C74.6765 217.996 75.4304 218.347 76.2035 218.666C76.4548 218.77 76.7072 218.879 76.9607 218.99C77.8492 219.377 78.7681 219.776 79.7358 219.962C80.0867 220.029 80.5057 220.072 80.9115 220.113C81.0253 220.124 81.1534 220.138 81.2837 220.152C79.9761 220.725 78.6834 221.211 77.2708 221.406C75.884 221.598 74.4736 221.746 73.1094 221.889L72.8146 221.92C71.6121 222.046 70.2732 222.024 68.8545 222.003C67.6948 221.985 66.4961 221.966 65.3618 222.035C64.1487 222.108 62.9528 222.377 61.7958 222.637C60.9193 222.834 60.0132 223.038 59.1257 223.149C59.118 223.15 59.1103 223.152 59.1026 223.153C58.0656 223.276 57.0136 223.351 55.9084 223.304Z" fill="#F8F4ED"/>
<path d="M168.636 100.978C162.611 96.7903 155.311 92.2464 147.705 95.9819C142.389 98.5924 139.031 101.589 137.723 104.888C136.963 106.803 136.391 109.828 136.262 112.375C135.017 114.817 133.602 117.104 132.169 119.487C131.596 120.439 131.038 121.382 130.5 122.323C130.434 122.395 130.377 122.474 130.307 122.542C128.185 124.615 124.932 126.345 121.384 127.289C120.84 127.434 120.289 127.575 119.734 127.718C116.328 128.594 112.806 129.5 109.854 131.358C103.794 135.172 105.014 143.005 106.09 149.915C106.611 153.26 107.103 156.419 106.759 158.854C106.001 164.214 104.728 167.96 102.632 171.001C101.028 173.328 99.1138 175.868 96.8175 177.775C96.9682 177.049 97.126 176.332 97.2898 175.632C97.1243 174.999 96.939 174.381 96.7229 173.807C95.5132 170.589 93.7108 168.473 91.0285 166.422C89.2942 165.097 87.3306 164.062 85.7278 162.567C85.3632 162.227 84.021 161.384 83.9209 160.871C83.7669 160.078 84.5131 160.376 85.0536 160.625C86.1275 161.122 87.1151 161.876 88.1225 162.502C89.755 163.516 91.2985 164.546 92.8288 165.671C92.4312 163.748 91.558 160.824 91.9655 159.803C92.9239 161.4 93.9587 164.175 94.3612 165.041C94.7033 165.776 95.1058 166.706 95.3648 167.602C96.4496 168.401 97.5675 169.116 98.5919 169.869C99.0813 167.2 99.2672 164.573 98.6596 161.768C98.7151 160.126 98.6304 158.503 98.5419 156.837C98.4699 155.49 98.3956 154.097 98.3956 152.649C98.3956 145.289 100.125 138.549 103.682 132.044C106.509 126.874 111.569 122.135 116.574 119.971C117.519 119.563 118.498 119.191 119.445 118.832C122.734 117.583 126.135 116.291 128.635 113.241C130.703 110.716 131.258 107.984 131.795 105.341C132.16 103.538 132.539 101.674 133.407 99.9111C134.987 96.7008 136.75 94.0009 138.812 91.6187C141.763 90.4476 144.695 89.1086 147.752 89.0861C148.555 89.0801 149.237 89.113 149.835 89.1733C149.947 87.9249 149.685 86.6858 149.171 84.7793C150.665 85.7018 151.888 87.7959 153.224 89.7095C153.317 89.7144 153.406 89.7161 153.506 89.726C154.847 89.8577 157.797 91.0814 158.941 89.5849C159.92 88.3024 159.005 85.7798 158.456 84.4781C157.759 82.8257 156.324 82.1403 155.159 80.8617C154.092 79.6906 153.468 78.4872 153.158 76.9193C152.926 75.7444 153.021 74.4916 153.083 73.2568C153.115 72.6131 153.125 71.9661 153.127 71.318C152.563 69.557 151.73 67.886 150.703 66.0334C149.361 63.6111 148.649 61.3046 148.653 58.49C148.967 60.5276 150.413 62.3111 151.647 63.9294C152.466 65.0023 152.842 66.0021 153.177 67.0552C153.268 65.3507 153.516 63.6698 154.18 62.0504C155.843 58.0027 155.024 53.7135 156.249 49.6773C160.336 54.6168 156.301 61.6054 155.741 66.9564C155.437 69.8627 155.488 73.0061 156.647 75.7455C157.515 74.7237 158.952 73.523 159.296 72.8409C159.87 71.7011 160.277 70.4653 160.678 69.2739C160.96 68.4365 161.211 66.6551 161.83 66.1816C163.371 67.4498 161.411 71.441 160.669 72.7717C159.489 74.885 158.717 76.533 158.46 78.6908C159.696 80.2279 161.153 81.5915 162.258 83.2417C163.516 85.1212 163.999 88.7469 165.562 90.1699C166.828 91.3223 177.721 91.7295 179.315 91.4343C181.364 91.0545 183.155 90.1002 184.702 88.596C186.681 86.6715 186.465 84.6795 187.505 82.2792C189.14 87.9562 185.595 93.2951 180.338 95.3349C181.779 97.9432 186.582 98.0875 189.114 99.1445C192.768 100.67 195.656 103.386 199.873 101.926C202.607 100.98 203.722 98.5321 204.904 96.062C205.677 94.447 206.165 91.4524 208.185 91.0721C206.631 94.1413 206.019 97.1042 204.974 100.357C202.92 106.755 194.599 107.918 188.757 106.982C186.894 106.683 185.343 105.777 183.746 104.857C181.162 103.368 178.427 102.205 175.712 101.218C177.734 105.763 180.104 110.55 185.185 112.408C183.29 114.172 178.753 109.352 177.305 108.374C177.22 115.215 187.487 118.745 186.641 125.509C185.879 123.386 185.471 121.455 183.628 119.919C181.88 118.462 179.879 117.354 178.227 115.722C173.95 111.5 174.12 103.945 168.636 100.978Z" fill="#F8F4ED"/>
<path d="M110.75 210.569C110.418 210.595 110.131 210.484 109.847 210.215C108.598 209.033 110.024 206.488 110.968 204.805C111.18 204.428 111.368 204.091 111.506 203.81C111.613 203.59 111.716 203.317 111.834 203C112.102 202.283 112.551 201.084 113.08 200.943C113.298 200.885 113.569 201.036 113.781 201.197C114.829 203.238 115.227 206.118 113.775 208.047C112.568 209.653 111.55 210.501 110.75 210.569Z" fill="#F8F4ED"/>
<path d="M123.896 77.4659C124.116 77.3446 124.478 77.2195 125.072 77.5235C126.777 78.3961 127.549 81.6415 127.634 83.4821C127.84 87.9205 125.101 91.3712 121.942 94.5826C124.373 89.5893 124.503 83.7372 123.075 78.3406C123.36 77.878 123.64 77.6064 123.896 77.4659Z" fill="#F8F4ED"/>
<path d="M123.896 63.5288C122.764 61.5571 122.203 59.4536 122.317 57.6059C122.484 54.8714 124.426 52.8053 126.305 50.8067C126.412 50.6925 126.516 50.5801 126.622 50.4665C125.827 52.3509 125.265 54.3671 124.952 56.4563C124.405 60.0968 125.25 63.4772 126.704 66.6815C125.388 65.6108 124.558 64.6807 123.896 63.5288Z" fill="#F8F4ED"/>
<path d="M157.697 224.362C155.763 223.622 154.108 223.179 152.558 223.007C151.091 222.502 149.694 222.176 148.58 222.112C146.851 222.01 145.181 222.336 143.563 222.648C141.519 223.043 139.588 223.415 137.684 222.945C134.685 222.203 132.251 220.503 129.896 218.858C126.72 216.64 123.436 214.346 118.746 214.34C118.735 214.34 118.725 214.34 118.714 214.34C115.317 214.34 112.805 215.124 109.764 217.13C107.842 218.399 105.929 219.801 104.08 221.158C102.655 222.203 101.22 223.254 99.7598 224.26C98.7162 223.942 97.6659 223.633 96.5673 223.445C94.937 223.165 93.3374 223.072 91.7576 223.102C92.065 222.924 92.3713 222.746 92.6797 222.57C93.6915 221.992 94.7374 221.395 95.7277 220.739C96.768 220.048 97.7512 219.396 97.6329 218.543C97.5373 217.852 96.79 217.534 96.2363 217.356C93.0696 216.335 89.204 216.793 84.4207 218.759C83.916 218.966 83.4194 219.189 82.9306 219.411C82.489 219.181 81.8116 219.103 81.0236 219.023C80.642 218.984 80.2472 218.943 79.9437 218.885C79.0958 218.722 78.2341 218.348 77.4011 217.985C77.141 217.872 76.8826 217.759 76.6247 217.653C75.8741 217.343 75.1318 216.998 74.4137 216.664C72.5309 215.788 70.5844 214.883 68.3926 214.584C66.0513 214.261 63.4476 214.595 61.2509 215.498C59.6601 216.151 58.2844 217.502 56.9537 218.808C56.2229 219.526 55.5323 220.204 54.8274 220.751C53.9971 221.397 52.8918 222.145 51.5985 222.781C48.2872 222.205 45.2855 221.535 41.6663 222.781C44.5036 220.079 47.4839 220.547 51.378 220.016C55.805 219.412 57.0235 216.236 60.1809 213.434C65.287 208.902 69.5325 213.448 75.5293 213.441C81.7489 213.434 85.8581 217.189 89.2574 210.293C89.6615 209.474 90.0629 208.671 90.4594 207.874C91.222 207.634 91.9391 207.407 92.5247 207.19C95.6501 206.033 98.6013 204.544 101.298 202.766C111.497 196.04 121.209 183.769 119.913 171.515C119.854 170.959 119.79 170.39 119.726 169.813C119.214 165.249 118.634 160.075 120.001 156.081C121.195 152.594 123.09 150.439 125.351 148.482C125.349 148.489 125.347 148.496 125.346 148.504C125.077 149.887 124.953 151.259 124.921 152.63C123.278 154.919 121.496 158.063 121.096 161.355C120.956 162.512 120.355 168.367 122.33 170.016L122.722 170.343L123.078 169.977C123.85 169.183 124.239 167.866 124.617 166.592C124.828 165.876 125.028 165.201 125.28 164.663C125.551 164.082 125.836 163.503 126.125 162.929C126.34 163.676 126.591 164.413 126.86 165.143C127.043 167.095 127.173 168.978 127 170.921C126.625 175.136 125.366 177.123 122.78 180.361C120.215 183.573 119.348 186.686 118.717 190.977C118.087 195.261 117.781 200.189 120.286 204.257C121 205.417 122.976 208.117 125.898 208.147C125.914 208.147 125.93 208.147 125.945 208.147C127.56 208.147 128.435 207.294 129.209 206.541C129.375 206.379 129.534 206.226 129.696 206.084C129.712 206.112 129.727 206.141 129.743 206.169C134.602 206.158 140.434 203.671 143.88 202.344C151.294 199.489 156.775 206.152 160.657 211.878C162.695 214.884 164.775 217.316 167.36 219.332C165.71 219.214 164.067 218.856 162.371 218.089C160.806 217.382 159.49 216.343 158.137 215.222C156.705 213.277 155.352 211.304 153.485 209.665C149.642 206.291 144.442 208.702 140.968 212.881C141.915 212.463 142.861 211.954 143.879 211.705C145.933 211.202 146.969 211.731 148.952 212.188C152.68 213.048 155.674 215.257 158.796 217.157C159.76 217.893 160.779 218.575 161.917 219.089C164.22 220.129 166.447 220.472 168.671 220.472C169.054 220.472 169.437 220.453 169.82 220.435C174.054 220.655 179.699 221.183 180.272 225.308C175.61 222.755 171.161 224.448 166.366 223.931C161.831 223.442 158.189 220.73 153.439 220.628C155.185 221.347 156.981 222.64 157.697 224.362ZM114.701 200.584L114.65 200.487L114.566 200.418C113.955 199.913 113.359 199.734 112.796 199.883C111.719 200.17 111.211 201.527 110.803 202.617C110.699 202.894 110.602 203.155 110.517 203.328C110.388 203.593 110.208 203.912 110.008 204.268C108.898 206.248 107.221 209.242 109.091 211.011C109.553 211.449 110.076 211.67 110.65 211.67C110.714 211.67 110.778 211.667 110.842 211.661C112.364 211.534 113.747 209.913 114.656 208.706C116.42 206.36 115.95 202.936 114.701 200.584Z" fill="#F8F4ED"/>
</svg>
